<?xml version="1.0" encoding="UTF-8"?>
<svg version="1.1" xmlns="http://www.w3.org/2000/svg" width="1920" height="480">
<path d="M0 0 C4.60399922 0.00348212 9.2079963 0.00105443 13.81199603 -0.00057749 C21.85677399 -0.00263717 29.90154451 -0.0010317 37.94632159 0.00306072 C49.90836378 0.00912883 61.87040134 0.00939347 73.83244478 0.00851873 C93.96050257 0.00720876 114.08855705 0.01053126 134.21661388 0.01653614 C154.13268435 0.02246247 174.04875344 0.02630396 193.96482478 0.02738895 C195.82549712 0.02749206 195.82549712 0.02749206 197.72375879 0.02759725 C204.02391507 0.02793561 210.32407135 0.02823698 216.62422762 0.02852413 C261.19491993 0.03062197 305.76561066 0.03735138 350.33630191 0.04682674 C361.12619855 0.04911853 371.91609519 0.05139395 382.70599185 0.05360164 C383.37523733 0.05373859 384.0444828 0.05387554 384.73400844 0.05401664 C415.88083492 0.06036784 447.02766155 0.0640886 478.1744885 0.06713644 C480.19806922 0.0673345 482.22164994 0.06753369 484.24523067 0.06773312 C497.6562865 0.06905297 511.06734234 0.07032749 524.47839818 0.07157198 C551.79585517 0.07410788 579.11331213 0.07692913 606.43076907 0.07992305 C608.31459781 0.08012899 608.31459781 0.08012899 610.2364837 0.08033908 C694.0369284 0.08953261 777.83737212 0.10537697 861.63781558 0.12226619 C861.26193364 0.54248995 860.8860517 0.96271371 860.4987794 1.39567152 C856.85203703 5.5488679 853.70015669 9.8193429 850.70373355 14.45651474 C810.18065135 75.97415861 751.4099051 156.28568135 655.16884528 187.74690058 C610.04943346 196.73673593 563.53959412 197.27027742 517.70031558 197.16523494 C515.82921248 197.16273219 513.95810935 197.1602494 512.0870062 197.15778657 C465.01144107 197.07136631 418.03142734 195.36677424 371.01847104 193.05903239 C342.27262127 191.65163007 313.53893366 190.67961337 284.76574527 190.04731502 C283.7793029 190.02548892 282.79286054 190.00366282 281.77652598 189.98117533 C270.87279284 189.74038648 259.96885698 189.50998161 249.06479655 189.28455522 C229.75747862 188.88490641 210.45120453 188.44099086 191.14538394 187.97488155 C190.21067012 187.95240746 189.27595629 187.92993336 188.3129178 187.90677824 C160.0605108 187.22533228 131.82326039 186.31111234 103.58532535 185.18066158 C101.85765955 185.11186409 100.12999333 185.04307708 98.40232669 184.97430072 C83.05033212 184.36163227 67.69925599 183.73173476 52.3509481 183.03233708 C-28.30386822 179.36015513 -116.33388378 177.31658447 -183.36218442 229.12226619 C-184.24132504 229.79902401 -185.12046567 230.47578182 -186.02624692 231.17304744 C-198.3756124 240.88761345 -209.95350718 251.4231038 -221.35095395 262.22431697 C-223.99123463 264.71588556 -226.65334937 267.18345029 -229.31530942 269.65180721 C-234.9751858 274.90257921 -240.5403863 280.20442982 -245.92077817 285.74335994 C-247.93640477 287.70738651 -249.98498969 289.54211818 -252.11609067 291.37617244 C-256.58215986 295.25072308 -260.72114861 299.40580168 -264.86218442 303.62226619 C-268.89101303 307.72447966 -272.90132572 311.78402741 -277.26843442 315.52851619 C-282.22901497 319.79646898 -286.77242578 324.46296575 -291.36218442 329.12226619 C-296.53390418 334.37234535 -301.71257651 339.49298391 -307.30749692 344.29023494 C-311.51204631 348.03915826 -315.41050426 352.11071209 -319.36218442 356.12226619 C-328.84976431 365.7535973 -328.84976431 365.7535973 -333.17468442 369.43476619 C-339.24121651 374.6363911 -344.74905661 380.44250431 -350.36218442 386.12226619 C-362.99547621 398.90552923 -362.99547621 398.90552923 -369.22546567 404.20820369 C-374.49913512 408.93233173 -379.38704336 414.08806468 -384.36218442 419.12226619 C-396.99547621 431.90552923 -396.99547621 431.90552923 -403.22546567 437.20820369 C-408.49913512 441.93233173 -413.38704336 447.08806468 -418.36218442 452.12226619 C-431.89625341 465.81699965 -431.89625341 465.81699965 -437.42312468 470.37748899 C-439.41044557 472.08611587 -439.41044557 472.08611587 -441.07544078 474.14972391 C-444.57318217 478.22653097 -447.12797522 480.60430956 -452.59449185 481.10664882 C-454.61286328 481.14001918 -456.63225657 481.12973854 -458.65039243 481.08430233 C-459.76795407 481.09113772 -460.88551571 481.09797312 -462.03694285 481.10501566 C-465.77206028 481.11816635 -469.50428623 481.0742417 -473.23913754 481.03046932 C-475.92015214 481.02821211 -478.60099107 481.02912839 -481.28198422 481.03400936 C-487.04873109 481.03819638 -492.8147517 481.01318056 -498.58131589 480.96810665 C-506.91858135 480.90298159 -515.25549703 480.88224422 -523.59298928 480.87220271 C-537.12107092 480.85471049 -550.6487658 480.8015172 -564.17663754 480.72578182 C-577.31463874 480.65230577 -590.45253475 480.59570005 -603.59070004 480.56171932 C-604.40106105 480.55961753 -605.21142206 480.55751574 -606.04633946 480.55535026 C-610.11184111 480.54490967 -614.1773435 480.53480008 -618.24284638 480.52485504 C-651.94957283 480.44197364 -685.65583115 480.30111481 -719.36218442 480.12226619 C-715.1650735 475.11530524 -710.79102458 470.40815507 -706.16470517 465.7978033 C-705.46285214 465.09439028 -704.76099911 464.39097726 -704.03787781 463.6662487 C-701.70059077 461.32499357 -699.35977037 458.98730463 -697.0189227 456.64960994 C-695.33625095 454.96558228 -693.65379182 453.28134215 -691.9715289 451.59690609 C-687.88482816 447.50612546 -683.79579857 443.417684 -679.70560553 439.33039536 C-676.37922547 436.006279 -673.05382922 432.68118141 -669.72912396 429.35538997 C-669.25488455 428.88099733 -668.78064514 428.40660469 -668.29203484 427.91783651 C-667.32844367 426.95392559 -666.36485473 425.99001244 -665.401268 425.02609708 C-656.376758 415.99873917 -647.34919201 406.97444234 -638.32056892 397.95119836 C-630.58547134 390.22056674 -622.85299723 382.48731916 -615.12243832 374.75214901 C-606.1317534 365.75610365 -597.13943695 356.76169427 -588.14453865 347.7698616 C-587.18398248 346.80962396 -586.22342839 345.84938424 -585.2628764 344.88914241 C-584.79034506 344.41676535 -584.31781372 343.94438828 -583.83096324 343.45769676 C-580.51249736 340.14009172 -577.19518797 336.82133303 -573.87833203 333.50211849 C-569.40726016 329.02815112 -564.93373593 324.55665023 -560.45833386 320.08701458 C-558.8192361 318.44923549 -557.18098207 316.81061147 -555.54364957 315.17106762 C-553.30262212 312.92729346 -551.05851412 310.68664469 -548.81363095 308.44672908 C-548.17178329 307.8026507 -547.52993564 307.15857233 -546.86863805 306.49497642 C-543.09663782 302.73906528 -539.19999684 299.18859227 -535.17335106 295.70764007 C-532.91482227 293.73067535 -530.77648693 291.65663215 -528.65759457 289.53120174 C-527.81674313 288.6902798 -526.97589169 287.84935787 -526.10955991 286.98295345 C-525.21581662 286.08404384 -524.32207333 285.18513423 -523.40124692 284.25898494 C-522.42806244 283.28387676 -521.45464669 282.30899935 -520.48101987 281.33433284 C-518.39965831 279.24983198 -516.31985518 277.16379343 -514.24127377 275.07652034 C-510.94794314 271.76956168 -507.65070712 268.46651505 -504.35290707 265.16401424 C-497.35301911 258.15306953 -490.35737712 251.13789515 -483.36218442 244.12226619 C-475.80786421 236.54587625 -468.25279866 228.97023845 -460.69282521 221.39948883 C-457.42121356 218.12292424 -454.15204867 214.84394445 -450.88479794 211.56303157 C-448.8450739 209.51579765 -446.80323466 207.47068311 -444.76084317 205.42611064 C-443.3771137 204.03964595 -441.99590918 202.65066269 -440.61480893 201.26157894 C-436.24457215 196.89097576 -431.80819836 192.68304661 -427.12062253 188.65485897 C-424.66933078 186.51839935 -422.37437398 184.24659464 -420.08288754 181.94062557 C-419.61664471 181.47292247 -419.15040189 181.00521938 -418.67003049 180.52334346 C-417.67430729 179.52386255 -416.67973852 178.52323035 -415.68626584 177.52151241 C-414.10645308 175.92873129 -412.52335856 174.33927462 -410.93945493 172.75056209 C-407.57751581 169.37729307 -404.21954622 166.00009018 -400.86218442 162.62226619 C-396.96621093 158.70254784 -393.06854904 154.78453877 -389.16661252 150.87075557 C-387.62036886 149.31811381 -386.07721061 147.76245216 -384.53418149 146.20661678 C-379.85038944 141.49879216 -375.13098125 136.89565395 -370.05957211 132.60310115 C-368.24185979 131.01729258 -366.55059252 129.34438962 -364.86218442 127.62226619 C-361.87346105 124.58631695 -358.74511963 121.77717961 -355.51843442 118.99726619 C-353.16255484 116.94867526 -350.85710982 114.85023618 -348.54968442 112.74726619 C-344.22606503 108.84546333 -339.7747599 105.14078121 -335.24499692 101.48164119 C-332.78735238 99.47023564 -330.37684851 97.41536401 -327.97668637 95.33613338 C-318.81936812 87.43637983 -309.12215065 80.25543474 -299.36218442 73.12226619 C-298.7590643 72.68140682 -298.15594418 72.24054744 -297.5345477 71.78632869 C-293.87446857 69.13335556 -290.14550211 66.59500306 -286.36218442 64.12226619 C-285.65142758 63.6567535 -284.94067075 63.1912408 -284.20837582 62.71162166 C-216.3278722 18.64341316 -138.86421176 5.13318173 -59.36218442 1.12226619 C-58.58100389 1.08148286 -57.79982336 1.04069952 -56.9949707 0.99868032 C-37.99356485 0.03351721 -19.01937485 -0.01908068 0 0 Z " fill="#EE0000" transform="translate(719.362184417434,-0.122266192920506)"/>
<path d="M0 0 C2.71919635 0.00012156 5.43839148 -0.00127299 8.15758747 -0.00258917 C14.02137022 -0.00464112 19.88514271 -0.00305699 25.74892426 0.00104904 C34.46786314 0.00713719 43.18679569 0.00737997 51.90573631 0.00650705 C66.57937712 0.00519948 81.25301341 0.00851037 95.92665291 0.01452446 C110.43917933 0.02045717 124.95170386 0.02429356 139.46423149 0.02537727 C140.36918379 0.02544601 141.2741361 0.02551475 142.2065112 0.02558558 C146.8029766 0.02592394 151.39944201 0.02622532 155.99590742 0.02651245 C188.48733942 0.02860855 220.97876897 0.03533384 253.47019958 0.04481506 C285.02000414 0.05401084 316.56980802 0.06108889 348.11961365 0.06532288 C349.58035027 0.06552017 349.58035027 0.06552017 351.07059671 0.06572144 C360.85082977 0.06704005 370.63106282 0.06831585 380.41129588 0.0695603 C400.33180431 0.07209599 420.25231269 0.07491724 440.17282104 0.07791138 C441.08857855 0.07804867 442.00433606 0.07818596 442.94784379 0.07832741 C504.02031953 0.08751608 565.09279391 0.10335986 626.16526794 0.12025452 C625.60592998 0.75843025 625.60592998 0.75843025 625.03529227 1.40949842 C621.49666031 5.48615087 618.18013322 9.66356679 614.97346497 14.0039835 C500.37436867 167.42629807 500.37436867 167.42629807 413.19980103 180.10756158 C389.29447912 183.25848122 365.37848368 184.06142775 341.29026794 183.99134827 C340.01383124 183.98922476 338.73739453 183.98710126 337.42227793 183.98491341 C304.61102601 183.89287951 271.93675656 182.24939926 239.20754528 180.04884398 C220.2916383 178.79116417 201.38909996 177.95023917 182.44017029 177.38612366 C181.76472225 177.36587587 181.08927421 177.34562809 180.39335805 177.32476674 C172.92612337 177.10136136 165.45863161 176.8876871 157.99098206 176.67866027 C144.79067955 176.30869966 131.59170815 175.89680044 118.39329529 175.4647522 C117.11827951 175.42308214 115.84326373 175.38141208 114.52961111 175.33847929 C95.90077752 174.72078174 77.29062087 173.88785038 58.6794281 172.87084961 C57.51741792 172.80762658 56.35540774 172.74440356 55.15818512 172.67926468 C44.2273494 172.08180835 33.29835606 171.46094197 22.37229043 170.78159928 C-17.60314592 168.30948867 -60.26334814 167.20991049 -93.18556881 193.79443359 C-94.27078106 194.66687427 -95.36122099 195.53285852 -96.45718479 196.39175415 C-105.38819475 203.41406003 -111.83376668 210.76144313 -118.19765091 220.11867523 C-134.90485761 244.09737198 -156.68848363 269.07551619 -186.63844299 274.55580139 C-202.46811185 277.02243113 -218.44079391 277.40891672 -234.42848206 277.37025452 C-235.11962868 277.36896357 -235.81077531 277.36767262 -236.52286577 277.36634254 C-254.41200192 277.31388769 -272.26179806 276.62296381 -290.12612438 275.72996902 C-300.50106563 275.21710642 -310.87226685 274.87152462 -321.25709534 274.63587952 C-321.99599091 274.61906521 -322.73488649 274.60225091 -323.49617285 274.58492708 C-327.20577505 274.50135949 -330.91543031 274.4204931 -334.62512112 274.34096527 C-365.04863807 273.68530048 -395.43761675 272.56074848 -425.83473206 271.12025452 C-421.37057611 265.77504693 -416.65643046 260.80010072 -411.72612 255.88465881 C-410.52633257 254.6825314 -410.52633257 254.6825314 -409.30230701 253.45611858 C-406.63335502 250.78319209 -403.9608599 248.11383737 -401.28834534 245.44447327 C-399.3689481 243.5242703 -397.45029595 241.60332344 -395.53160095 239.68241882 C-390.86755604 235.01393666 -386.20082304 230.34815065 -381.53310789 225.6833384 C-377.73762093 221.89011378 -373.94311596 218.09590943 -370.14930344 214.30101013 C-369.60845536 213.76000882 -369.06760728 213.21900751 -368.51036986 212.66161221 C-367.41149069 211.5624133 -366.31261375 210.46321215 -365.21373902 209.36400878 C-354.91878666 199.06620755 -344.62077626 188.77146882 -334.32171105 178.47778118 C-325.49505074 169.6555871 -316.67101374 160.83077631 -307.84889221 152.00404358 C-297.59250124 141.7422942 -287.33448108 131.48217793 -277.07387722 121.22464085 C-275.97851346 120.12959562 -274.88315178 119.03454831 -273.78779221 117.9394989 C-273.24892222 117.40078319 -272.71005223 116.86206747 -272.15485284 116.30702704 C-268.36750679 112.52054244 -264.58131829 108.73290276 -260.79558182 104.94480896 C-256.17780085 100.32421568 -251.55822664 95.70542414 -246.93638481 91.0888927 C-244.58073774 88.73586354 -242.22615589 86.38179492 -239.87320709 84.02606583 C-237.31688562 81.46700288 -234.75748926 78.91105428 -232.1973114 76.35585022 C-231.09446578 75.24965851 -231.09446578 75.24965851 -229.96934044 74.1211195 C-225.94669672 70.11356992 -221.82811178 66.27874215 -217.52228725 62.57635784 C-215.42896379 60.77013825 -213.41781564 58.8821511 -211.39723206 56.99525452 C-171.07151499 20.74533734 -123.9881644 6.94350447 -70.77223206 2.43275452 C-70.06183777 2.3718161 -69.35144348 2.31087769 -68.61952209 2.24809265 C-45.77798732 0.32589331 -22.91088857 -0.02780319 0 0 Z " fill="#EE0000" transform="translate(745.8347320556641,208.87974548339844)"/>
<path d="M0 0 C-4.37791747 5.13835628 -8.82293242 10.20985246 -13.31524277 15.2483511 C-14.0338836 16.05502876 -14.75252444 16.86170642 -15.49294227 17.69282886 C-25.47217578 28.88716676 -35.47924446 40.05655542 -45.49902344 51.21459961 C-46.00671905 51.78001553 -46.51441466 52.34543145 -47.03749499 52.92798118 C-74.23985006 83.21814128 -101.67672418 113.27484718 -129.56378174 142.93666077 C-130.50326558 143.93608775 -130.50326558 143.93608775 -131.4617289 144.95570518 C-145.09482275 159.45626729 -158.76217083 173.92410571 -172.46557276 188.35823571 C-179.18661284 195.43804151 -185.90020472 202.52488653 -192.60986328 209.61547852 C-193.27730643 210.32055891 -193.94474958 211.0256393 -194.63241828 211.75208576 C-214.63316358 232.88721083 -234.1936093 254.36209668 -253.47148127 276.15747139 C-283.29733352 309.86475676 -313.74110671 342.8949104 -345.47598091 374.8195963 C-346.77361687 376.12513677 -348.07047144 377.43145438 -349.36654457 378.73854636 C-414.94015229 444.86141565 -474.29883518 490.25045362 -595.09153578 496.07237526 C-653.34176455 496.26892661 -711.66534432 489.89993738 -769 480 C-764.62208253 474.86164372 -760.17706758 469.79014754 -755.68475723 464.7516489 C-754.9661164 463.94497124 -754.24747556 463.13829358 -753.50705773 462.30717114 C-743.52782422 451.11283324 -733.52075554 439.94344458 -723.50097656 428.78540039 C-722.99328095 428.21998447 -722.48558534 427.65456855 -721.96250501 427.07201882 C-694.76014994 396.78185872 -667.32327582 366.72515282 -639.43621826 337.06333923 C-638.8098957 336.39705458 -638.18357314 335.73076992 -637.5382711 335.04429482 C-623.90517725 320.54373271 -610.23782917 306.07589429 -596.53442724 291.64176429 C-589.81338716 284.56195849 -583.09979528 277.47511347 -576.39013672 270.38452148 C-575.72269357 269.67944109 -575.05525042 268.9743607 -574.36758172 268.24791424 C-554.36683642 247.11278917 -534.8063907 225.63790332 -515.52851873 203.84252861 C-485.70266648 170.13524324 -455.25889329 137.1050896 -423.52401909 105.1804037 C-422.22638313 103.87486323 -420.92952856 102.56854562 -419.63345543 101.26145364 C-354.05984771 35.13858435 -294.70116482 -10.25045362 0 0 Z " fill="#ED0000" transform="translate(1920,0)"/>
<path d="M0 0 C5.28 0 10.56 0 16 0 C17.49505392 4.05211167 18.98891194 8.10462818 20.47998047 12.15820312 C20.98550736 13.5314924 21.4916717 14.90454722 21.99853516 16.27734375 C24.88169313 24.08756177 27.68728929 31.90097884 30.22949219 39.83105469 C30.80763874 41.95084123 30.80763874 41.95084123 32 43 C39.425 21.715 39.425 21.715 47 0 C52.28 0 57.56 0 63 0 C63 19.8 63 39.6 63 60 C59.37 60 55.74 60 52 60 C51.67 47.13 51.34 34.26 51 21 C46.38 33.87 41.76 46.74 37 60 C33.37 60 29.74 60 26 60 C21.38 47.13 16.76 34.26 12 21 C11.67 33.87 11.34 46.74 11 60 C7.37 60 3.74 60 0 60 C0 40.2 0 20.4 0 0 Z " fill="#EE0000" transform="translate(1617,420)"/>
<path d="M0 0 C16.17 0 32.34 0 49 0 C49 3.3 49 6.6 49 10 C42.73 10 36.46 10 30 10 C30 26.5 30 43 30 60 C26.37 60 22.74 60 19 60 C19 43.5 19 27 19 10 C12.73 10 6.46 10 0 10 C0 6.7 0 3.4 0 0 Z " fill="#EE0000" transform="translate(1562,420)"/>
</svg>
