<?xml version="1.0" standalone="no"?>
<!DOCTYPE svg PUBLIC "-//W3C//DTD SVG 20010904//EN"
 "http://www.w3.org/TR/2001/REC-SVG-20010904/DTD/svg10.dtd">
<svg version="1.0" xmlns="http://www.w3.org/2000/svg"
 width="735.000000pt" height="490.000000pt" viewBox="0 0 735.000000 490.000000"
 preserveAspectRatio="xMidYMid meet">

<g transform="translate(0.000000,490.000000) scale(0.100000,-0.100000)"
fill="#000000" stroke="none">
<path d="M0 3479 l0 -1422 42 7 c23 4 46 12 50 19 6 9 10 8 18 -3 6 -10 6 -16
-3 -19 -22 -7 -49 -42 -43 -57 3 -8 -1 -14 -10 -14 -11 0 -13 6 -9 19 6 21
-10 38 -20 21 -4 -6 -11 -8 -16 -5 -5 4 -9 -217 -9 -569 0 -317 3 -576 7 -576
3 0 34 15 67 34 34 18 124 66 201 106 77 40 145 76 150 80 6 4 165 87 355 185
190 98 372 194 405 213 54 30 57 33 25 27 -58 -10 -260 -33 -340 -39 l-75 -5
60 9 c33 6 114 17 180 26 229 30 245 35 394 132 122 78 199 138 386 296 33 29
84 67 113 86 l52 35 -27 20 c-67 50 -438 285 -450 285 -7 0 -13 5 -13 10 0 6
-24 22 -52 35 -29 14 -42 22 -28 19 33 -8 173 -79 224 -113 23 -16 59 -38 81
-50 22 -11 98 -59 169 -105 l130 -84 55 35 c31 20 73 49 93 65 21 16 45 28 55
26 11 -2 -14 -25 -73 -68 -49 -36 -93 -65 -99 -65 -5 0 -16 -8 -23 -17 -7 -10
-34 -32 -60 -50 -26 -17 -90 -68 -142 -112 -52 -45 -117 -100 -145 -122 -108
-89 -364 -244 -660 -402 -483 -257 -550 -293 -553 -303 -2 -5 -11 -9 -20 -9
-9 0 -111 -52 -227 -114 l-210 -114 -3 -416 -2 -416 3250 0 c2943 0 3250 1
3250 16 0 24 -15 48 -117 177 -126 162 -293 385 -317 422 -10 17 -40 55 -66
85 -26 30 -72 91 -102 135 -29 44 -73 99 -96 123 -24 23 -41 42 -38 42 2 0
-11 18 -31 39 -19 22 -33 42 -31 45 1 3 -13 22 -33 43 -20 21 -49 56 -65 78
-30 41 -46 61 -77 98 -9 11 -43 54 -75 95 -158 205 -238 299 -357 422 -73 77
-184 208 -253 300 -68 91 -150 201 -183 245 -33 44 -78 105 -101 135 -32 44
-198 366 -198 384 0 3 -21 48 -46 101 -25 53 -44 99 -41 101 6 6 33 -40 74
-126 62 -131 184 -376 196 -395 12 -20 136 -178 369 -470 75 -93 164 -198 199
-231 l64 -62 115 -5 c63 -4 124 -8 135 -11 11 -2 35 -5 53 -5 17 -1 32 -5 32
-11 0 -6 -48 -10 -122 -11 -68 0 -132 -4 -143 -9 -11 -4 54 -6 145 -4 114 2
150 0 115 -6 -27 -4 -92 -9 -142 -9 -60 -1 -93 -5 -93 -12 0 -7 21 -9 63 -5
158 14 245 17 251 8 7 -11 -97 -22 -211 -22 -52 0 -83 -4 -83 -11 0 -7 18 -9
53 -5 121 12 265 17 271 8 6 -10 -110 -22 -215 -22 -37 0 -71 -4 -74 -10 -4
-6 53 -7 164 -3 116 4 171 3 171 -4 0 -7 -59 -13 -155 -18 -85 -4 -155 -11
-155 -16 0 -11 12 -11 190 0 74 5 141 6 148 4 36 -14 -4 -21 -149 -28 -93 -4
-157 -11 -152 -16 5 -5 79 -5 173 0 161 8 190 7 190 -9 0 -7 -177 -20 -277
-20 -31 0 -53 -4 -53 -11 0 -7 55 -8 184 -3 119 4 185 3 189 -3 8 -12 -66 -22
-168 -24 -99 -1 -184 -13 -163 -23 9 -4 94 -2 189 4 147 9 174 9 187 -3 12
-13 0 -16 -90 -21 -218 -14 -260 -18 -250 -28 6 -6 75 -5 191 3 162 11 184 10
198 -3 14 -14 1 -16 -128 -23 -79 -3 -163 -7 -186 -8 -28 -1 -43 -6 -43 -14 0
-15 61 -16 260 -3 90 5 139 5 147 -2 23 -19 5 -25 -74 -26 -210 -4 -329 -18
-283 -34 6 -2 74 0 153 5 172 9 259 6 264 -9 3 -9 -46 -14 -169 -20 -95 -4
-183 -6 -195 -5 -26 3 -31 -16 -8 -25 8 -3 103 -1 210 6 154 9 199 9 210 0 8
-7 15 -16 15 -20 0 -7 -303 -25 -368 -22 -23 2 -32 -2 -29 -10 3 -10 54 -12
223 -9 187 3 222 1 232 -12 11 -13 4 -16 -60 -21 -40 -4 -136 -8 -213 -10 -77
-2 -141 -4 -143 -5 -11 -4 29 -30 49 -32 25 -2 288 9 370 16 37 3 50 0 64 -15
18 -20 17 -20 -41 -21 -32 -1 -120 -4 -194 -8 -74 -4 -142 -4 -151 0 -19 9
-40 -3 -31 -17 14 -21 60 -23 259 -13 145 7 208 7 223 -1 29 -16 25 -25 -12
-26 -18 0 -122 -4 -231 -8 -187 -8 -197 -10 -182 -26 13 -14 29 -17 78 -15
299 15 389 16 403 4 25 -20 -3 -29 -96 -29 -47 0 -143 -3 -213 -7 -124 -6
-128 -7 -110 -25 17 -17 31 -17 257 -7 234 10 266 7 266 -21 0 -7 -269 -21
-407 -21 -57 -1 -62 -2 -53 -19 13 -25 49 -27 300 -16 187 7 223 7 231 -5 5
-8 9 -17 9 -20 0 -8 -317 -24 -424 -22 l-68 1 23 -24 c22 -24 27 -24 124 -20
399 20 409 20 428 -2 18 -20 18 -20 -20 -26 -45 -6 -334 -19 -415 -18 -62 1
-69 -5 -38 -33 18 -16 35 -16 278 -5 241 11 261 11 286 -5 14 -10 26 -21 26
-26 0 -5 -42 -10 -92 -10 -51 -1 -104 -2 -118 -4 -14 -1 -91 -5 -172 -9 -82
-5 -148 -11 -148 -15 0 -3 7 -15 15 -25 14 -18 25 -19 212 -12 109 4 236 9
283 11 82 4 87 3 115 -23 l30 -27 -50 -2 c-281 -13 -521 -26 -524 -29 -3 -2 7
-17 22 -32 l26 -27 133 6 c73 4 205 10 293 13 l160 7 35 -30 35 -30 -80 -1
c-44 0 -152 -5 -240 -10 -88 -5 -183 -10 -212 -11 -73 -3 -83 -12 -53 -45 l25
-26 135 7 c74 3 214 10 310 15 l175 8 42 -26 c24 -15 43 -30 43 -33 0 -3 -61
-7 -136 -8 -74 -1 -181 -6 -237 -11 -56 -6 -139 -13 -184 -16 -46 -4 -83 -10
-83 -13 0 -3 12 -19 27 -35 29 -32 13 -32 298 -7 61 6 178 10 260 10 l150 0
33 -29 c17 -16 32 -32 32 -34 0 -2 -62 -5 -139 -5 -76 -1 -185 -6 -242 -11
-57 -6 -144 -13 -194 -16 -122 -8 -121 -7 -88 -49 26 -33 32 -35 83 -35 30 1
75 5 100 10 67 14 500 34 510 24 13 -13 1 -28 -40 -53 l-35 -21 73 0 72 0 0
2256 c0 2138 -1 2257 -17 2270 -17 13 -17 13 0 14 16 0 17 15 17 180 l0 180
-25 0 c-15 0 -25 -5 -24 -12 3 -28 -2 -38 -21 -38 -22 0 -28 35 -7 43 6 3
-211 6 -483 6 -323 0 -490 -3 -480 -9 8 -5 33 -10 56 -10 22 0 49 -6 60 -14
18 -14 18 -16 2 -32 -16 -16 -22 -17 -55 -4 -21 7 -51 13 -67 11 -16 -1 -37 1
-47 4 -27 9 -24 43 4 48 12 2 -2 5 -30 6 l-53 1 0 -45 c0 -40 3 -45 23 -45 54
-1 63 -46 10 -52 -27 -3 -28 -5 -33 -73 l-4 -70 -6 80 c-5 74 -7 80 -26 77
-30 -4 -74 15 -74 33 0 8 10 16 23 17 32 2 40 1 60 -7 15 -6 17 -1 17 39 l0
46 -1949 0 c-1557 0 -1950 -2 -1953 -12 -2 -7 -3 -34 0 -60 4 -53 22 -56 22
-3 0 20 6 35 15 39 33 12 41 -3 42 -79 1 -64 -2 -75 -18 -80 -25 -8 -41 3 -34
24 4 14 -1 16 -35 13 -38 -4 -40 -3 -40 23 0 15 -4 24 -10 20 -18 -11 -80 18
-80 37 0 11 -7 18 -20 18 -11 0 -20 -4 -20 -10 0 -15 -39 -32 -59 -25 -12 4
-17 12 -14 24 3 13 -5 20 -36 30 -24 7 -41 18 -41 26 0 13 -49 15 -340 15
l-341 0 -8 -22 c-5 -13 -6 -29 -4 -35 3 -8 -5 -13 -21 -14 -14 -1 -30 -3 -36
-4 -5 -1 -13 -3 -17 -4 -5 -1 3 -6 15 -12 28 -11 25 -30 -6 -44 -14 -6 -20
-16 -16 -27 12 -38 -95 -60 -118 -24 -8 12 -40 -24 -121 -134 l-48 -65 6 -145
c12 -298 14 -510 4 -510 -5 0 -9 21 -9 48 -1 26 -5 175 -10 331 l-9 283 49 62
c27 33 70 91 95 129 37 52 52 67 71 67 14 0 32 6 40 14 7 8 17 16 22 18 5 1 6
22 4 46 l-4 42 -274 0 c-176 0 -274 -4 -274 -10 0 -5 -7 -10 -15 -10 -9 0 -26
-6 -38 -14 -18 -12 -30 -12 -71 -1 -49 13 -49 12 -74 -17 -31 -37 -41 -29 -13
10 12 17 21 33 21 36 0 3 -90 6 -200 6 l-200 0 0 -1421z m277 1366 c1 -27 -2
-30 -25 -29 -19 0 -28 8 -33 25 -7 23 -7 23 -8 2 -1 -30 -19 -39 -23 -11 -4
29 -25 34 -24 6 1 -16 -5 -23 -18 -23 -14 0 -20 9 -22 33 l-4 33 78 -3 77 -3
2 -30z m5774 12 c-10 -9 -11 -8 -5 6 3 10 9 15 12 12 3 -3 0 -11 -7 -18z
m-5961 3 c0 -16 -57 -16 -74 1 -6 5 6 9 32 9 23 0 42 -4 42 -10z m889 -5 c18
-10 12 -30 -11 -40 -13 -6 -24 -20 -26 -32 -2 -14 -10 -23 -22 -23 -10 0 -20
-7 -24 -15 -7 -20 -66 -20 -92 0 -18 13 -24 9 -88 -58 l-68 -72 53 65 c29 36
60 73 68 83 11 14 12 20 3 26 -18 11 14 51 42 51 12 0 28 6 35 13 10 10 11 8
5 -7 -7 -18 -5 -17 14 2 17 17 31 21 61 18 22 -2 44 -7 50 -11z m888 -44 c19
19 50 -6 49 -38 -1 -15 2 -33 7 -40 4 -6 3 -14 -3 -18 -8 -5 -7 -11 1 -22 15
-17 -2 -33 -37 -33 -18 0 -22 6 -22 33 0 46 -18 84 -41 92 -12 3 -21 10 -21
15 0 12 33 18 46 8 6 -4 15 -3 21 3z m5304 -14 c-13 -13 -26 -3 -16 12 3 6 11
8 17 5 6 -4 6 -10 -1 -17z m-1171 -27 c0 -11 3 -20 8 -21 4 0 19 -2 34 -3 15
-1 33 -7 39 -13 20 -20 -1 -35 -42 -31 l-39 4 0 -60 c0 -85 -17 -54 -19 36 -1
19 -9 31 -27 40 -35 17 -36 32 -1 36 15 2 27 9 27 18 0 8 5 14 10 14 6 0 10
-9 10 -20z m-3860 -11 c0 -5 -4 -9 -10 -9 -5 0 -10 7 -10 16 0 8 5 12 10 9 6
-3 10 -10 10 -16z m4680 11 c0 -5 -7 -10 -15 -10 -8 0 -15 5 -15 10 0 6 7 10
15 10 8 0 15 -4 15 -10z m-6769 -19 c0 11 2 11 6 1 4 -10 8 -10 19 -1 15 12
17 6 8 -29 -5 -18 -9 -20 -20 -11 -11 9 -14 8 -14 -2 -1 -19 -30 20 -30 39 0
12 3 12 15 2 12 -10 15 -10 16 1z m117 -13 c8 -18 11 -19 11 -5 1 24 21 22 21
-3 0 -27 28 -26 32 2 6 40 45 31 50 -12 3 -24 0 -25 -51 -28 -30 -2 -58 1 -64
7 -7 7 -16 7 -29 0 -21 -11 -23 -3 -8 35 12 32 24 33 38 4z m5702 -38 c10 -5
25 -8 32 -5 7 3 22 -1 33 -10 19 -14 19 -16 2 -29 -14 -10 -27 -12 -50 -5 -18
5 -33 9 -34 9 -2 0 -4 -30 -5 -67 -1 -57 -2 -60 -5 -20 -4 43 -6 46 -24 37
-13 -7 -25 -7 -38 0 -28 14 -71 13 -66 -2 3 -7 1 -33 -4 -58 -8 -38 -9 -40
-10 -14 -1 19 -6 32 -13 31 -34 -1 -48 4 -48 18 0 18 1 18 36 5 26 -10 27 -10
22 27 -3 21 -1 49 3 63 6 23 7 23 8 3 1 -29 27 -43 61 -33 15 4 34 4 41 -1 19
-12 29 -11 29 1 0 6 -11 15 -25 20 -32 12 -32 28 0 40 14 5 25 13 24 17 -3 20
4 25 8 5 2 -12 13 -27 23 -32z m-4395 -22 c6 -6 3 -15 -11 -26 -12 -9 -24 -25
-27 -34 -7 -21 -74 -35 -90 -19 -23 23 -44 9 -120 -77 -42 -49 -91 -102 -109
-118 -31 -28 27 46 125 159 33 38 48 63 46 79 -5 33 7 46 36 40 18 -3 25 0 25
12 0 29 41 36 80 13 19 -11 40 -24 45 -29z m5108 35 c-7 -2 -19 -2 -25 0 -7 3
-2 5 12 5 14 0 19 -2 13 -5z m-4958 -55 c7 -7 2 -15 -12 -25 -13 -9 -23 -23
-23 -33 0 -9 -11 -22 -24 -30 -22 -11 -41 -11 -85 1 -8 2 -38 -27 -72 -71
l-59 -75 -1 -280 c-1 -176 -5 -259 -9 -225 -5 30 -8 157 -9 281 l-1 226 70 89
c46 59 68 95 64 107 -4 12 0 17 15 17 32 0 35 1 49 22 11 15 21 17 50 12 20
-3 42 -11 47 -16z m5005 -3 c0 -8 -7 -15 -16 -15 -14 0 -14 3 -4 15 7 8 14 15
16 15 2 0 4 -7 4 -15z m-6540 -45 c0 -28 -3 -30 -35 -30 -24 0 -35 5 -35 14 0
32 13 46 41 46 26 0 29 -4 29 -30z m180 9 c0 -5 -9 -9 -20 -9 -11 0 -20 -4
-20 -10 0 -5 6 -10 14 -10 8 0 18 -5 21 -10 4 -7 -18 -9 -62 -7 -65 3 -68 4
-71 30 l-3 27 70 -1 c39 -1 71 -5 71 -10z m359 -36 c-40 -47 -42 -49 -34 -33
10 19 47 60 53 60 3 0 -5 -12 -19 -27z m1146 13 c24 -10 35 -22 35 -35 0 -12
5 -21 10 -21 6 0 10 6 10 14 0 18 20 25 53 19 37 -7 43 -22 18 -39 -12 -9 -19
-19 -16 -24 3 -5 -3 -14 -14 -19 -23 -13 -68 -14 -75 -3 -2 4 -19 9 -36 10
-20 2 -29 -1 -25 -8 4 -6 -10 -2 -30 7 l-37 18 -46 -50 c-26 -28 -76 -81 -111
-120 -79 -87 -25 -13 73 99 60 69 67 81 53 91 -15 11 -15 14 0 34 9 14 22 21
34 18 10 -3 20 1 23 9 7 18 38 18 81 0z m3818 -83 l-10 -58 -1 80 c-1 63 2 75
10 58 7 -15 7 -40 1 -80z m-5535 -44 c-16 -11 -30 -7 -36 9 -2 7 4 12 12 12 9
0 20 8 24 18 6 14 7 13 10 -7 2 -13 -2 -28 -10 -32z m82 30 c0 -8 5 -7 16 2
13 11 17 10 26 -5 9 -17 10 -17 24 1 14 17 14 17 25 0 10 -17 12 -17 23 -2 20
27 51 15 51 -20 0 -27 -3 -30 -30 -30 -16 0 -35 3 -42 8 -7 5 -21 4 -32 -2
-14 -8 -22 -8 -27 0 -4 7 -10 7 -16 1 -5 -5 -18 -7 -29 -5 -27 8 -25 63 3 63
4 0 8 -5 8 -11z m1630 -14 c0 -2 -23 -36 -51 -74 l-51 -70 6 -213 c2 -117 2
-199 -1 -183 -6 28 -6 29 -12 7 -3 -13 -4 74 -2 193 l3 217 47 63 c40 56 61
76 61 60z m5350 -5 c0 -5 -9 -10 -20 -10 -11 0 -20 5 -20 10 0 6 9 10 20 10
11 0 20 -4 20 -10z m52 -101 c-2 -58 -8 -99 -16 -107 -10 -11 -13 8 -12 96 1
91 3 109 16 107 12 -2 14 -19 12 -96z m-6615 69 c-3 -8 -6 -5 -6 6 -1 11 2 17
5 13 3 -3 4 -12 1 -19z m1377 -18 c-14 -14 -38 5 -30 26 6 16 8 16 23 1 11
-11 14 -20 7 -27z m56 21 c0 -13 -28 -22 -35 -11 -3 4 1 11 7 13 20 8 28 8 28
-2z m1274 -62 c-3 -5 -19 -7 -37 -5 -18 3 -36 5 -40 5 -5 1 -5 6 -2 11 4 6 11
8 16 5 5 -4 17 -2 26 4 19 10 47 -4 37 -20z m3639 10 c-8 -8 -16 -8 -30 0 -16
9 -14 10 12 11 21 0 26 -3 18 -11z m-153 -89 c0 -45 -5 -82 -11 -85 -7 -5 -9
22 -7 83 3 110 18 112 18 2z m-6460 63 c3 -3 -1 -8 -7 -10 -7 -3 -13 -13 -13
-24 0 -27 -20 -24 -21 4 0 22 0 22 -9 1 -7 -18 -17 -21 -64 -22 -55 0 -56 0
-56 27 0 15 3 30 6 34 7 7 156 -2 164 -10z m-220 -18 c0 -16 -6 -25 -15 -25
-9 0 -15 9 -15 25 0 16 6 25 15 25 9 0 15 -9 15 -25z m4140 11 c0 -14 -36 -26
-58 -18 -28 9 -11 32 23 32 23 0 35 -5 35 -14z m2500 4 c0 -5 -7 -10 -15 -10
-8 0 -15 5 -15 10 0 6 7 10 15 10 8 0 15 -4 15 -10z m-5639 -23 c-10 -9 -11
-8 -5 6 3 10 9 15 12 12 3 -3 0 -11 -7 -18z m-426 -8 c2 -8 4 -109 6 -224 3
-182 2 -210 -11 -210 -12 0 -16 15 -18 67 -2 37 2 77 8 88 7 13 7 20 0 20 -6
0 -10 50 -10 141 0 102 3 140 12 137 6 -2 12 -11 13 -19z m1294 7 c21 -7 30
-15 23 -20 -11 -7 -82 18 -82 28 0 9 21 6 59 -8z m4611 0 c0 -11 -19 -15 -25
-6 -3 5 1 10 9 10 9 0 16 -2 16 -4z m-4590 -61 c7 -8 17 -12 23 -8 18 11 77
14 77 3 0 -5 11 -10 25 -10 14 0 25 -5 25 -10 0 -6 7 -6 19 1 22 15 51 5 51
-16 0 -24 -30 -30 -61 -13 -16 9 -38 14 -51 11 -22 -6 -66 -49 -67 -66 -1 -7
-11 -21 -40 -53 -8 -9 -11 -27 -8 -48 5 -29 3 -33 -13 -29 -14 4 -19 -2 -23
-24 -3 -21 -5 -17 -7 17 -2 25 -2 54 -1 64 2 23 41 64 41 44 0 -12 59 51 60
64 1 19 -33 37 -60 31 -34 -6 -51 17 -30 42 16 19 24 19 40 0z m-770 -207 c0
-107 -4 -178 -10 -178 -5 0 -9 76 -9 193 -1 127 3 187 9 177 5 -8 10 -95 10
-192z m-1120 170 c0 -10 0 -21 1 -25 0 -5 -6 -9 -14 -11 -9 -2 -16 8 -19 27
-3 24 -1 29 14 28 10 -1 18 -9 18 -19z m1361 -1 c-10 -9 -11 -8 -5 6 3 10 9
15 12 12 3 -3 0 -11 -7 -18z m-1238 1 c4 -9 8 -10 14 -3 11 15 63 17 78 5 7
-6 11 -20 8 -31 -4 -15 -13 -19 -42 -17 -20 1 -40 7 -44 12 -6 8 -10 7 -14 -1
-2 -7 -20 -13 -38 -13 -34 0 -54 14 -36 25 6 3 8 12 4 20 -4 12 3 15 30 15 19
0 38 -6 40 -12z m6984 -43 c1 -19 -2 -35 -6 -35 -5 0 -13 -10 -19 -22 -9 -20
-11 -16 -11 28 -1 28 2 54 6 57 16 17 29 4 30 -28z m-5620 -228 c-1 -45 -3 -5
-3 88 0 94 2 130 3 82 2 -48 2 -125 0 -170z m651 196 c2 -8 -5 -13 -17 -13
-12 0 -21 6 -21 16 0 18 31 15 38 -3z m4533 -56 c-8 -8 -11 -1 -11 24 0 46 14
60 18 19 2 -18 -1 -37 -7 -43z m-3936 43 c3 -5 -1 -10 -9 -10 -9 0 -16 5 -16
10 0 6 4 10 9 10 6 0 13 -4 16 -10z m165 -26 c0 -8 -5 -12 -10 -9 -6 4 -8 11
-5 16 9 14 15 11 15 -7z m-2902 -8 c18 -11 15 -23 -8 -29 -17 -4 -40 16 -40
36 0 6 34 2 48 -7z m98 -1 c-8 -21 11 -19 23 3 10 16 12 16 25 -1 12 -16 14
-16 20 -2 3 10 15 15 28 13 18 -2 23 -10 25 -35 1 -30 0 -31 -35 -26 -38 4
-59 5 -101 0 -19 -2 -24 3 -26 23 -3 33 2 40 27 40 14 0 18 -5 14 -15z m2889
5 c-3 -5 -10 -10 -16 -10 -5 0 -9 5 -9 10 0 6 7 10 16 10 8 0 12 -4 9 -10z
m1505 6 c0 -3 -4 -8 -10 -11 -5 -3 -10 -1 -10 4 0 6 5 11 10 11 6 0 10 -2 10
-4z m666 -19 c4 -4 -11 -7 -34 -7 -23 0 -42 4 -42 10 0 10 65 8 76 -3z m669 4
c7 -12 -12 -24 -25 -16 -11 7 -4 25 10 25 5 0 11 -4 15 -9z m-5131 -98 c-81
-107 -82 -108 -89 -101 -6 6 140 188 151 188 3 0 -25 -39 -62 -87z m2476 77
c0 -5 -4 -10 -10 -10 -5 0 -10 5 -10 10 0 6 5 10 10 10 6 0 10 -4 10 -10z
m190 -30 c0 -5 -4 -10 -10 -10 -5 0 -10 5 -10 10 0 6 5 10 10 10 6 0 10 -4 10
-10z m-2641 -65 c-34 -47 -69 -83 -69 -71 0 9 90 116 97 116 2 0 -10 -20 -28
-45z m68 -92 c-2 -27 -3 -5 -3 47 0 52 1 74 3 48 2 -27 2 -69 0 -95z m1281
125 c-5 -13 -107 -12 -142 2 -14 6 6 9 62 9 61 1 83 -2 80 -11z m1482 2 c0 -5
-7 -10 -16 -10 -8 0 -12 5 -9 10 3 6 10 10 16 10 5 0 9 -4 9 -10z m-2386 -35
c-9 -14 -18 -25 -21 -25 -5 0 5 18 20 38 17 22 18 13 1 -13z m2561 15 c3 -5
-1 -10 -10 -10 -9 0 -13 5 -10 10 3 6 8 10 10 10 2 0 7 -4 10 -10z m-3504 -22
c5 -9 6 -23 3 -32 -5 -13 -21 -16 -86 -14 -71 1 -81 3 -88 22 -13 34 4 42 85
41 61 0 78 -3 86 -17z m3679 2 c0 -5 -4 -10 -10 -10 -5 0 -10 5 -10 10 0 6 5
10 10 10 6 0 10 -4 10 -10z m-3890 -15 c0 -16 -45 -21 -54 -6 -8 12 4 21 31
21 14 0 23 -6 23 -15z m1237 -77 c-2 -18 -4 -4 -4 32 0 36 2 50 4 33 2 -18 2
-48 0 -65z m2223 82 c0 -5 -2 -10 -4 -10 -3 0 -8 5 -11 10 -3 6 -1 10 4 10 6
0 11 -4 11 -10z m594 4 c20 -8 11 -24 -15 -24 -19 0 -25 11 -12 23 8 8 8 8 27
1z m-2394 -64 c0 -5 -5 -10 -11 -10 -5 0 -7 5 -4 10 3 6 8 10 11 10 2 0 4 -4
4 -10z m-1560 -57 c0 -15 2 -14 15 3 14 19 15 18 34 -6 20 -24 20 -24 14 -2
-4 18 -1 22 19 22 21 0 25 -5 26 -29 l1 -29 -80 0 c-83 0 -99 8 -85 43 8 21
56 20 56 -2z m1688 -35 l3 -48 72 0 71 0 -34 -35 c-33 -34 -65 -50 -40 -20 21
25 -2 17 -34 -12 -17 -16 -24 -19 -15 -8 29 36 33 50 7 28 -13 -13 -31 -23
-39 -23 -8 0 -21 -6 -28 -12 -11 -10 -10 -8 0 10 8 12 17 22 20 22 4 0 10 8
13 18 4 9 -13 -3 -38 -27 -25 -25 -49 -42 -52 -38 -4 4 0 15 9 25 24 27 21 38
-5 16 -21 -19 -21 -19 -14 0 7 19 6 19 -14 1 -11 -10 -23 -15 -27 -12 -9 9
-44 -23 -37 -34 3 -5 -2 -6 -11 -3 -14 6 -12 11 11 35 15 16 23 29 18 29 -6 0
-21 -12 -35 -26 -13 -14 -32 -30 -43 -36 -14 -8 -11 0 10 28 30 41 17 36 -38
-15 -16 -14 -28 -19 -28 -13 0 7 4 12 8 12 5 0 14 12 21 26 10 23 7 22 -36
-13 -26 -21 -43 -31 -38 -23 4 8 -6 2 -23 -14 -42 -39 -40 -22 3 33 57 71 45
66 -52 -23 -18 -17 -33 -25 -33 -19 0 7 4 14 10 18 5 3 19 20 32 38 19 28 20
30 3 17 -11 -8 -38 -32 -59 -52 -51 -48 -68 -49 -27 -3 43 49 39 57 -6 14 -21
-19 -47 -42 -58 -50 -16 -12 -15 -8 5 21 l24 35 -47 -38 c-56 -45 -59 -41 -14
16 66 82 56 80 -40 -7 -39 -36 -43 -23 -8 24 14 19 25 36 25 38 0 4 -71 -50
-115 -87 -19 -17 -24 -19 -14 -6 9 11 26 38 39 60 l24 39 -27 -19 c-14 -11
-27 -23 -27 -26 0 -4 -21 -24 -47 -45 l-48 -39 35 45 35 45 -30 -22 c-16 -11
-41 -33 -54 -47 -45 -48 -41 -27 6 34 25 33 44 62 42 64 -2 2 -38 -24 -79 -59
-41 -35 -76 -62 -79 -60 -2 3 12 24 31 47 19 24 38 49 42 56 12 19 -84 -51
-118 -87 -45 -47 -52 -37 -14 17 19 26 38 54 43 61 14 24 -46 -24 -100 -78
-27 -28 -58 -51 -68 -51 -33 0 -331 71 -344 82 -7 6 -13 28 -13 50 l0 39 88
-8 c140 -13 244 -10 250 6 3 8 0 11 -7 7 -6 -4 -11 -4 -10 1 4 20 -2 32 -19
35 -14 3 -13 5 6 10 17 5 22 2 22 -12 0 -14 15 -19 100 -29 139 -15 186 -15
171 2 -6 8 -10 16 -8 18 1 2 -4 -2 -10 -10 -11 -13 -13 -11 -13 11 0 17 7 27
20 31 15 4 20 0 20 -14 0 -14 7 -19 28 -20 15 0 66 -4 115 -7 48 -4 87 -4 87
0 0 5 -4 8 -10 8 -5 0 -10 9 -10 20 0 11 7 20 15 20 8 0 15 -6 15 -14 0 -9 20
-15 61 -20 82 -8 137 -7 122 2 -6 4 73 6 175 5 142 -2 183 0 174 9 -7 7 -12
22 -12 34 0 13 -6 26 -12 30 -17 11 24 21 82 20 l45 -1 3 -47z m789 26 c-9 -9
-28 6 -21 18 4 6 10 6 17 -1 6 -6 8 -13 4 -17z m-2577 1 c0 -16 -33 -25 -50
-15 -7 4 -10 12 -6 18 8 14 56 12 56 -3z m860 5 c0 -5 -7 -10 -16 -10 -8 0
-12 5 -9 10 3 6 10 10 16 10 5 0 9 -4 9 -10z m2120 0 c0 -5 -4 -10 -10 -10 -5
0 -10 5 -10 10 0 6 5 10 10 10 6 0 10 -4 10 -10z m400 0 c0 -5 -4 -10 -10 -10
-5 0 -10 5 -10 10 0 6 5 10 10 10 6 0 10 -4 10 -10z m-2485 -10 c-3 -5 -12
-10 -18 -10 -7 0 -6 4 3 10 19 12 23 12 15 0z m4265 0 c0 -5 -7 -10 -15 -10
-8 0 -15 5 -15 10 0 6 7 10 15 10 8 0 15 -4 15 -10z m280 0 c0 -5 -4 -10 -10
-10 -5 0 -10 5 -10 10 0 6 5 10 10 10 6 0 10 -4 10 -10z m1180 -24 c0 -3 -4
-8 -10 -11 -5 -3 -10 -1 -10 4 0 6 5 11 10 11 6 0 10 -2 10 -4z m-5100 -21 c0
-8 -4 -15 -10 -15 -5 0 -10 7 -10 15 0 8 5 15 10 15 6 0 10 -7 10 -15z m2915
-75 c77 -5 163 -12 190 -15 28 -2 81 -7 120 -10 38 -4 71 -8 73 -10 11 -10
-27 -10 -143 1 -285 27 -825 50 -825 34 0 -4 7 -13 15 -20 8 -7 15 -18 15 -24
0 -6 -12 2 -27 18 l-25 30 -192 0 c-185 0 -187 0 -61 6 172 9 684 3 860 -10z
m-1565 -13 c0 -32 -15 -37 -114 -37 -45 0 -86 -4 -92 -10 -5 -5 -27 -14 -49
-19 l-40 -10 45 2 c40 2 45 -1 48 -20 3 -22 0 -23 -65 -25 -37 0 -88 -1 -113
0 l-45 1 24 -20 c30 -25 14 -25 -19 1 -14 10 -22 21 -19 25 4 3 35 10 70 16
66 11 88 19 51 19 -13 0 -22 6 -22 15 0 8 -4 15 -10 15 -5 0 -10 -9 -10 -20 0
-15 -7 -20 -25 -20 -19 0 -25 5 -25 21 0 11 -4 17 -10 14 -5 -3 -10 -15 -10
-26 0 -28 -32 -21 -40 8 -3 16 -9 20 -18 14 -17 -10 -15 -21 5 -43 9 -10 12
-19 7 -19 -5 -1 -13 -2 -19 -4 -5 -1 -34 -3 -62 -3 l-53 -2 0 -70 0 -70 -31 0
c-19 0 -28 4 -24 11 4 6 12 8 19 6 11 -4 13 26 8 101 l-2 22 -238 0 -239 0 -1
29 c-1 36 11 46 63 54 24 4 50 17 68 35 l29 30 479 1 479 2 0 -24z m490 13 c0
-5 -17 -10 -39 -10 -21 0 -67 -3 -102 -6 -35 -4 -61 -4 -57 0 3 4 46 11 95 15
48 5 91 9 96 10 4 0 7 -3 7 -9z m65 0 c-3 -5 -12 -10 -18 -10 -7 0 -6 4 3 10
19 12 23 12 15 0z m-29 -17 c16 -21 18 -37 4 -28 -13 8 -33 45 -24 45 4 0 13
-8 20 -17z m-253 0 c-7 -2 -19 -2 -25 0 -7 3 -2 5 12 5 14 0 19 -2 13 -5z
m-1463 -12 c0 -5 -7 -12 -16 -15 -14 -5 -15 -4 -4 9 14 17 20 19 20 6z m1403
2 c-13 -2 -33 -2 -45 0 -13 2 -3 4 22 4 25 0 35 -2 23 -4z m-100 -10 c-13 -2
-33 -2 -45 0 -13 2 -3 4 22 4 25 0 35 -2 23 -4z m270 -10 c-7 -2 -19 -2 -25 0
-7 3 -2 5 12 5 14 0 19 -2 13 -5z m275 0 c-10 -2 -26 -2 -35 0 -10 3 -2 5 17
5 19 0 27 -2 18 -5z m235 0 c-7 -2 -19 -2 -25 0 -7 3 -2 5 12 5 14 0 19 -2 13
-5z m1302 -18 c22 -3 58 -8 80 -11 73 -9 108 -19 113 -33 3 -10 0 -11 -14 -3
-11 5 -40 13 -66 16 -36 6 -48 4 -48 -6 0 -8 -4 -6 -11 5 -5 9 -22 17 -37 17
-46 0 -102 12 -102 21 0 5 10 7 23 4 12 -2 40 -7 62 -10z m-1274 -75 c20 -41
35 -78 33 -82 -10 -15 -43 -8 -54 12 -7 14 -21 20 -45 20 -25 0 -35 -5 -40
-20 -3 -11 -13 -20 -21 -20 -10 0 -8 13 12 58 15 31 29 66 32 77 6 22 22 36
36 32 5 -2 26 -37 47 -77z m-747 64 c9 -3 16 -12 16 -18 0 -9 -15 -11 -53 -8
-40 3 -56 0 -66 -12 -27 -32 9 -96 54 -96 18 0 24 6 27 28 4 36 41 39 46 3 5
-35 -22 -51 -85 -51 -44 0 -59 5 -78 25 -38 37 -30 96 16 121 25 14 96 18 123
8z m96 -52 c0 -62 11 -82 45 -82 34 0 45 20 45 82 0 32 4 58 10 58 6 0 10 -30
10 -70 0 -80 -9 -90 -83 -90 -57 0 -68 14 -69 87 0 76 -1 73 22 73 18 0 20 -7
20 -58z m190 -12 l0 -70 50 0 c28 0 50 -4 50 -10 0 -6 -30 -10 -70 -10 l-70 0
0 80 c0 73 2 80 20 80 18 0 20 -7 20 -70z m250 61 c0 -6 -19 -11 -42 -13 -38
-3 -43 -6 -43 -28 0 -19 5 -25 22 -25 31 -1 30 -19 -2 -23 -20 -3 -25 -9 -25
-33 0 -22 -5 -29 -20 -29 -18 0 -20 7 -20 80 l0 80 65 0 c36 0 65 -4 65 -9z
m315 -71 c0 -70 -1 -75 -22 -78 -22 -3 -23 -1 -23 78 0 79 1 81 23 78 21 -3
22 -8 22 -78z m166 70 c23 -13 25 -52 5 -73 -13 -13 -13 -17 -1 -33 38 -50 -6
-61 -46 -13 -29 35 -49 32 -49 -7 0 -17 -5 -24 -20 -24 -18 0 -20 7 -20 80 l0
80 56 0 c30 0 64 -5 75 -10z m1168 -219 c-13 -89 -26 -161 -31 -161 -4 0 -5 6
-3 13 2 6 11 68 20 137 18 143 25 183 32 177 2 -3 -6 -78 -18 -166z m-4080
117 c1 -5 -6 -8 -14 -8 -16 0 -19 9 -8 36 6 16 7 16 14 -2 4 -10 8 -22 8 -26z
m1277 0 c2 -18 7 -46 9 -63 3 -16 4 -33 2 -37 -1 -3 9 -18 22 -32 14 -14 19
-26 13 -26 -7 0 -12 5 -12 12 0 6 -3 8 -6 5 -4 -4 -2 -12 3 -19 6 -7 10 -20
11 -28 2 -62 6 -110 10 -110 3 0 12 8 21 18 9 10 39 38 66 62 53 47 30 18 -49
-62 l-40 -40 58 -29 c59 -31 65 -31 70 -7 2 7 8 27 15 43 7 17 18 49 24 73 6
23 15 42 19 42 4 0 8 -2 8 -6 0 -15 -52 -192 -63 -213 -9 -19 -9 -25 1 -28 15
-6 16 -43 1 -43 -7 0 -9 -10 -7 -24 4 -18 1 -23 -10 -19 -11 5 -13 1 -7 -18 4
-13 13 -27 19 -31 7 -5 5 -13 -8 -25 -18 -17 -18 -17 -13 0 5 13 1 17 -18 17
-20 0 -25 5 -25 24 0 13 7 29 15 36 8 7 15 23 15 36 0 13 6 24 13 24 8 0 13
15 13 39 1 41 2 40 -108 89 -3 2 -4 -6 -1 -17 4 -15 14 -21 32 -21 22 -1 24
-2 8 -11 -9 -5 -21 -8 -26 -4 -10 6 -9 -14 2 -32 4 -6 3 -14 -3 -18 -18 -11
-10 -25 15 -25 14 0 25 -4 25 -10 0 -10 -2 -11 -36 -15 -12 -1 -26 -5 -33 -9
-15 -10 -14 17 1 32 17 17 -4 15 -28 -3 -25 -19 -31 -19 -30 3 0 10 13 30 29
44 37 35 36 53 -3 33 -18 -9 -30 -11 -30 -5 0 6 7 13 15 16 21 8 19 34 -2 34
-14 1 -12 5 10 21 15 11 25 25 22 29 -3 5 -8 35 -11 67 -2 32 -5 64 -6 71 -1
6 -14 12 -30 12 -34 0 -36 14 -3 43 22 20 23 26 15 67 -11 52 -12 86 -4 78 3
-4 7 -21 10 -40z m-521 -8 c4 -6 -9 -10 -32 -9 -38 1 -38 1 -8 9 17 4 31 8 32
9 1 0 5 -3 8 -9z m0 -60 c-3 -5 -11 -10 -16 -10 -6 0 -7 5 -4 10 3 6 11 10 16
10 6 0 7 -4 4 -10z m-35 -4 c0 -3 -4 -8 -10 -11 -5 -3 -10 -1 -10 4 0 6 5 11
10 11 6 0 10 -2 10 -4z m315 -5 c3 -5 1 -12 -5 -16 -5 -3 -10 1 -10 9 0 18 6
21 15 7z m2794 2 c-1 -5 0 -10 1 -13 1 -3 7 -30 14 -60 7 -30 17 -64 21 -74 5
-12 5 -17 -2 -13 -5 3 -18 34 -28 69 -10 35 -22 67 -27 73 -12 14 -10 25 7 25
8 0 14 -3 14 -7z m-3539 -43 c0 -5 -12 -10 -27 -9 l-28 1 25 8 c14 4 26 8 28
9 1 1 2 -3 2 -9z m2944 4 c-69 -19 -81 -20 -109 -8 -28 11 -24 12 44 11 41 -1
70 -2 65 -3z m-2780 -13 c3 -5 -5 -11 -19 -13 -28 -6 -35 8 -7 15 9 3 18 5 19
6 1 0 4 -3 7 -8z m3453 -41 c28 -27 47 -50 44 -50 -4 0 -29 23 -56 50 -27 28
-47 50 -44 50 4 0 29 -22 56 -50z m-3702 30 c-44 -11 -67 -11 -60 0 3 6 25 9
48 9 40 -1 40 -2 12 -9z m4605 0 c0 -5 -4 -10 -10 -10 -5 0 -10 5 -10 10 0 6
5 10 10 10 6 0 10 -4 10 -10z m360 6 c0 -3 -4 -8 -10 -11 -5 -3 -10 -1 -10 4
0 6 5 11 10 11 6 0 10 -2 10 -4z m-4815 -22 c-9 -9 -19 -13 -23 -10 -3 4 0 11
8 16 24 15 33 11 15 -6z m-259 -1 c-9 -10 -178 -44 -184 -38 -11 11 12 19 81
31 88 15 112 16 103 7z m198 -8 c-4 -8 -11 -16 -18 -17 -17 -2 -28 -4 -61 -12
-67 -16 -75 -16 -75 -2 0 17 21 26 63 27 18 0 41 4 52 9 31 13 45 12 39 -5z
m965 -31 c-13 -16 -39 -19 -39 -4 0 12 32 30 43 23 4 -3 3 -11 -4 -19z m1687
1 c7 -16 30 -20 36 -7 5 14 58 24 58 12 0 -6 4 -9 9 -6 11 7 41 -3 41 -14 0
-4 -31 -11 -70 -15 -38 -4 -70 -11 -70 -16 0 -5 15 -39 34 -76 35 -68 53 -123
42 -123 -16 0 -96 188 -102 238 -3 25 13 30 22 7z m-3071 -4 c-12 -11 -103
-26 -93 -16 7 7 61 22 88 24 8 1 10 -2 5 -8z m223 -8 c-2 -13 -19 -21 -63 -28
-33 -5 -66 -14 -74 -19 -10 -6 -16 -6 -19 2 -2 7 -11 12 -20 12 -35 0 6 19 73
33 96 20 107 20 103 0z m1989 -15 c-3 -7 -5 -2 -5 12 0 14 2 19 5 13 2 -7 2
-19 0 -25z m73 0 c0 -5 -4 -8 -10 -8 -5 0 -10 10 -10 23 0 18 2 19 10 7 5 -8
10 -18 10 -22z m-885 12 c3 -5 1 -10 -4 -10 -6 0 -11 5 -11 10 0 6 2 10 4 10
3 0 8 -4 11 -10z m-1515 -10 c0 -5 -5 -10 -11 -10 -5 0 -7 5 -4 10 3 6 8 10
11 10 2 0 4 -4 4 -10z m-40 -10 c-8 -5 -26 -9 -40 -9 l-25 1 25 8 c14 4 32 8
40 9 13 1 13 0 0 -9z m154 -25 c-4 -8 -10 -13 -15 -10 -4 3 -6 12 -3 20 4 8
10 13 15 10 4 -3 6 -12 3 -20z m911 -5 c24 -27 13 -68 -22 -76 -48 -13 -85 35
-57 75 19 26 55 27 79 1z m-211 1 c3 -4 -1 -17 -9 -27 -13 -16 -16 -17 -25 -4
-5 8 -10 21 -10 28 0 13 36 17 44 3z m384 -13 c-4 -27 -23 -34 -32 -13 -8 21
1 35 20 35 10 0 14 -8 12 -22z m707 2 c3 -5 1 -10 -4 -10 -6 0 -11 5 -11 10 0
6 2 10 4 10 3 0 8 -4 11 -10z m88 1 c5 -1 5 -6 1 -13 -5 -7 -2 -9 9 -5 9 3 18
0 21 -8 6 -16 -19 -45 -39 -45 -7 0 -15 -7 -19 -15 -8 -21 7 -19 37 5 14 11
30 20 36 20 21 0 11 -27 -15 -38 -15 -7 -22 -17 -18 -24 4 -7 3 -8 -4 -4 -7 4
-23 -4 -36 -17 -13 -13 -31 -27 -40 -30 -9 -4 -16 -14 -16 -23 0 -10 -3 -14
-7 -11 -3 4 -15 0 -25 -9 -14 -13 -15 -20 -7 -31 15 -18 1 -17 -17 2 -18 18
-35 20 -31 4 3 -18 -20 -22 -26 -4 -4 9 -1 15 6 15 7 0 26 14 42 30 16 17 34
30 41 30 6 0 27 13 45 30 28 24 30 30 15 30 -18 0 -18 1 -2 19 13 14 14 21 5
27 -8 4 -10 3 -5 -4 9 -16 -7 -15 -22 0 -9 9 -12 9 -12 0 0 -7 6 -12 13 -12 7
-1 5 -6 -5 -14 -10 -7 -18 -18 -18 -23 0 -14 -39 -63 -51 -63 -16 0 -10 70 6
76 8 4 15 11 15 16 0 6 -7 8 -15 4 -9 -3 -15 0 -15 9 0 9 10 15 24 15 14 0 28
5 31 11 4 6 14 8 22 5 8 -3 11 -2 8 3 -3 6 3 14 12 20 16 9 16 12 3 20 -11 8
-7 9 15 6 17 -2 34 -4 38 -4z m195 -26 c-3 -13 -1 -22 3 -19 5 3 9 12 9 20 0
8 5 14 10 14 6 0 10 -8 10 -18 0 -10 9 -25 20 -35 26 -22 25 -32 -2 -51 -31
-22 -41 -20 -34 8 7 27 -10 30 -38 7 -15 -12 -16 -10 -10 25 6 40 20 74 31 74
3 0 3 -11 1 -25z m-668 11 c0 -3 -4 -8 -10 -11 -5 -3 -10 -1 -10 4 0 6 5 11
10 11 6 0 10 -2 10 -4z m1907 -12 c3 -8 0 -21 -6 -27 -9 -9 -11 -8 -6 6 6 14
2 17 -25 17 -18 0 -29 -4 -25 -10 3 -5 2 -10 -4 -10 -14 0 -23 18 -16 30 10
16 75 12 82 -6z m-3020 -16 c-3 -8 -6 -5 -6 6 -1 11 2 17 5 13 3 -3 4 -12 1
-19z m1953 1 c0 -6 -24 -34 -54 -62 -29 -29 -66 -70 -82 -92 -16 -23 -54 -69
-84 -104 -30 -34 -54 -66 -53 -71 2 -5 -5 -12 -15 -15 -9 -3 -39 -33 -67 -67
-89 -109 -99 -120 -162 -187 -35 -36 -63 -72 -63 -80 0 -7 -6 -11 -14 -8 -8 3
-16 3 -18 -2 -2 -4 -38 -31 -80 -61 -43 -29 -75 -57 -72 -62 3 -5 0 -8 -7 -6
-18 4 -159 -94 -155 -107 1 -5 36 -19 76 -30 40 -11 75 -25 77 -31 3 -8 -28
-3 -79 12 -46 14 -93 23 -105 21 -22 -4 -25 1 -25 38 0 32 3 36 20 31 9 -3 35
6 58 22 22 15 74 49 115 77 l74 50 -46 8 c-40 7 -52 5 -92 -17 -25 -14 -57
-26 -70 -26 -20 0 -24 -4 -20 -19 2 -10 -3 -25 -12 -34 -8 -9 -16 -19 -15 -22
1 -22 -2 -26 -14 -22 -8 3 -13 -1 -12 -11 1 -11 -9 -17 -33 -19 -19 -2 -38 -8
-42 -15 -5 -8 -17 -7 -43 6 -39 18 -48 31 -16 23 13 -3 20 0 20 8 0 8 -10 15
-22 17 -13 2 -22 9 -21 16 2 6 -2 12 -7 12 -6 0 -10 -4 -10 -9 0 -20 -100 -9
-200 23 -58 19 -100 35 -95 35 9 1 130 -28 190 -45 46 -13 65 -12 65 3 0 8 -9
17 -20 20 -11 3 -20 11 -20 18 0 7 -7 15 -15 19 -8 3 -15 1 -15 -4 0 -6 -4
-10 -10 -10 -5 0 -6 7 -3 17 4 10 2 14 -5 9 -6 -3 -14 -1 -18 5 -5 8 0 10 18
6 17 -5 30 -2 38 8 11 13 10 14 -4 9 -9 -3 -16 -1 -16 4 0 7 -16 6 -47 -3 -65
-20 -87 -18 -37 3 25 10 39 22 36 30 -3 9 3 11 21 7 22 -6 25 -4 20 14 -5 21
12 31 19 10 2 -5 11 -7 21 -4 9 4 15 11 12 15 -3 4 4 19 15 31 11 13 19 19 20
12 0 -6 -4 -13 -10 -15 -5 -1 0 -14 11 -28 l20 -25 -7 36 c-3 22 -2 39 5 43 6
4 11 0 11 -8 0 -9 5 -16 11 -16 6 0 8 9 4 20 -5 15 -3 18 9 14 20 -8 20 -13 0
-35 -10 -11 -12 -19 -5 -24 6 -3 11 -1 11 4 0 6 7 11 15 11 8 0 15 -8 15 -17
0 -15 2 -16 9 -3 6 8 8 17 5 21 -2 4 3 10 12 13 9 4 14 13 10 21 -7 19 8 19
23 1 8 -10 9 -16 1 -21 -5 -3 -10 -12 -10 -18 0 -7 7 -4 14 6 7 9 19 17 27 17
12 0 12 -2 0 -9 -14 -9 -9 -41 7 -41 5 0 15 7 22 15 7 8 17 15 22 15 6 0 5 -7
-2 -15 -7 -8 -10 -15 -7 -15 3 0 12 -3 20 -6 20 -7 30 25 15 44 -11 13 -10 15
5 9 12 -5 17 -3 15 5 -5 15 -51 19 -60 4 -4 -6 -10 -8 -13 -4 -4 3 3 16 15 28
21 21 21 22 3 42 -17 19 -17 20 2 34 10 8 13 14 7 14 -9 0 -10 5 -2 19 6 13 7
28 0 45 -6 16 -6 27 0 31 9 5 14 -14 12 -37 -1 -3 5 -9 13 -11 10 -4 12 0 9
16 -4 21 10 37 33 37 7 0 10 -9 8 -20 -2 -12 -1 -28 2 -36 4 -12 9 -10 25 8
16 18 22 20 38 10 15 -9 19 -8 23 6 3 12 5 11 6 -5 0 -13 -4 -23 -10 -23 -6 0
-9 -12 -7 -27 2 -21 -2 -29 -17 -31 -17 -4 -18 -3 -5 13 14 17 13 17 -5 6 -15
-10 -20 -22 -17 -49 1 -21 3 -49 3 -64 0 -16 3 -28 7 -28 13 0 73 58 63 62 -5
2 -6 23 -1 51 6 39 4 47 -9 48 -13 1 -13 2 1 6 11 3 17 14 17 31 0 48 4 61 19
67 22 8 34 -17 16 -36 -7 -8 -14 -23 -14 -32 0 -9 -4 -18 -8 -21 -5 -3 -7 -20
-6 -38 1 -18 3 -41 3 -51 1 -10 6 -15 12 -12 6 4 10 21 9 39 -3 46 -1 56 10
56 6 0 8 -17 5 -40 -5 -39 -5 -40 13 -23 12 11 15 22 10 29 -5 7 -5 22 0 35
10 27 6 49 -10 49 -6 0 -8 -9 -5 -20 3 -13 0 -20 -9 -20 -20 0 -17 20 8 47 12
13 16 23 10 23 -7 0 -12 5 -12 10 0 6 4 10 9 10 15 0 29 -53 25 -93 -2 -20 1
-37 6 -37 5 0 35 24 66 53 31 28 62 56 70 60 9 5 13 17 10 30 -3 12 -3 16 0
10 11 -24 22 -13 22 23 0 19 3 38 6 41 3 4 6 -6 6 -21 0 -16 4 -25 10 -21 6 4
8 10 5 15 -3 4 3 7 12 6 13 -1 17 7 17 31 0 26 3 30 14 20 9 -7 10 -13 3 -15
-6 -2 -11 -8 -11 -14 0 -6 9 -3 20 7 11 10 17 22 13 28 -4 6 -1 7 7 2 10 -6
12 -4 7 9 -6 14 -3 17 8 12 9 -3 24 3 34 13 11 11 30 25 43 32 22 12 22 11 8
-6 -8 -10 -51 -53 -95 -95 -157 -150 -243 -231 -269 -253 -14 -13 -26 -29 -26
-36 0 -8 -3 -12 -6 -9 -3 3 -15 -4 -28 -16 -48 -46 -97 -85 -114 -91 -9 -3
-28 -14 -42 -25 l-25 -20 43 2 c23 1 42 4 42 8 0 4 14 13 30 20 26 11 28 14
14 24 -14 11 -14 13 0 25 14 11 16 11 16 -3 0 -9 3 -16 7 -16 13 0 92 65 93
77 0 6 8 14 18 17 9 3 94 85 187 182 94 97 190 190 215 207 25 17 51 37 59 45
7 7 16 11 19 8 13 -13 -435 -488 -521 -552 -50 -37 -54 -43 -35 -46 26 -5 78
17 78 32 0 6 6 10 13 10 22 0 176 159 291 300 64 79 109 130 175 198 35 37 82
92 104 122 22 30 45 58 51 62 16 11 26 10 26 -3z m-1567 -11 c4 -10 8 -9 17 2
9 11 13 12 17 3 2 -7 9 -13 14 -13 6 0 7 5 4 10 -3 6 1 10 9 10 9 0 16 -6 16
-14 0 -10 -20 -14 -80 -15 -66 -2 -80 1 -80 13 0 20 76 23 83 4z m391 0 c5
-10 7 -10 12 0 8 17 21 15 28 -4 5 -13 -4 -15 -59 -13 -47 2 -65 6 -65 16 0
17 76 18 84 1z m76 -3 c0 -8 -4 -15 -9 -15 -5 0 -11 7 -15 15 -3 9 0 15 9 15
8 0 15 -7 15 -15z m-734 -70 c68 -4 133 -16 139 -26 8 -12 -142 -10 -173 2
-16 6 -49 8 -82 3 -30 -4 -47 -9 -38 -11 20 -5 20 -43 0 -43 -9 0 -12 6 -8 16
3 8 2 12 -4 9 -6 -3 -10 -2 -10 3 0 15 -53 8 -58 -8 -4 -12 -2 -13 9 -2 15 14
33 16 25 3 -4 -5 0 -11 6 -14 7 -3 -5 -3 -27 -2 -22 2 -41 3 -41 4 -1 1 1 15
5 32 l6 32 85 4 c47 3 89 9 94 14 6 5 13 4 17 -2 4 -6 29 -13 55 -14z m384 1
c0 -7 3 -7 8 -1 12 16 83 19 93 3 5 -8 9 -9 9 -2 0 8 27 12 80 13 48 1 80 -3
80 -9 0 -5 -18 -10 -40 -10 -22 0 -40 -4 -40 -10 0 -5 -13 -10 -30 -10 -17 0
-30 5 -30 13 0 9 -2 9 -8 0 -9 -14 -162 -17 -162 -3 0 6 -18 10 -40 10 -22 0
-40 5 -40 11 0 6 23 9 60 8 35 -1 60 -7 60 -13z m497 8 c-3 -3 -12 -4 -19 -1
-8 3 -5 6 6 6 11 1 17 -2 13 -5z m40 0 c-3 -3 -12 -4 -19 -1 -8 3 -5 6 6 6 11
1 17 -2 13 -5z m3779 -15 c4 -7 0 -9 -14 -5 -17 6 -19 3 -15 -14 4 -15 1 -20
-16 -20 -22 0 -25 7 -15 34 7 18 49 22 60 5z m-3778 -33 c-24 -17 -23 -29 1
-21 15 4 20 0 23 -25 4 -28 0 -34 -40 -57 -52 -31 -62 -24 -62 50 0 42 2 47
23 47 12 0 29 5 37 10 23 15 38 11 18 -4z m-166 -102 c3 -76 1 -86 -17 -98
-32 -21 -69 -31 -60 -16 5 9 3 11 -6 6 -8 -3 -22 -9 -32 -12 -10 -4 -16 -13
-13 -20 7 -17 -10 -19 -18 -1 -4 6 -4 2 -2 -9 2 -16 -4 -25 -22 -33 -13 -7
-27 -10 -29 -7 -2 2 5 7 16 11 12 3 21 11 21 16 0 12 -4 11 -35 -3 -18 -8 -25
-18 -22 -29 4 -15 1 -16 -19 -7 l-23 11 22 19 c12 11 15 17 7 14 -8 -3 -23 -9
-32 -12 -10 -4 -18 -10 -18 -14 0 -5 -6 -10 -12 -13 -7 -2 -5 -3 5 -2 9 2 17
0 17 -3 0 -8 -69 -50 -115 -72 -16 -8 -43 -23 -60 -35 -53 -36 -92 -54 -111
-51 -11 2 -13 1 -6 -1 29 -10 -4 -23 -59 -23 -39 0 -58 -4 -54 -10 4 -6 22 -8
43 -5 28 5 33 4 22 -4 -8 -6 -22 -11 -32 -11 -9 0 -18 -6 -20 -12 -5 -15 -138
-20 -138 -6 0 4 8 8 19 8 10 0 24 7 31 15 7 8 18 15 26 15 7 0 17 6 21 13 7
12 73 47 318 171 44 22 82 43 85 46 3 3 22 14 43 25 21 11 41 24 44 28 5 8
-30 -8 -113 -50 -25 -13 -37 -14 -64 -4 -36 12 -46 9 -35 -9 4 -6 13 -9 21 -6
7 3 16 1 18 -3 3 -4 -36 -30 -87 -56 -51 -26 -144 -76 -207 -110 -63 -34 -136
-70 -162 -80 -27 -10 -48 -22 -48 -27 0 -5 5 -6 11 -3 15 10 169 13 169 3 0
-4 -16 -8 -36 -8 -21 0 -33 -4 -29 -10 8 -13 -88 -13 -129 -1 -17 6 -58 14
-91 18 -53 7 -60 11 -63 32 -2 15 0 21 7 17 6 -4 11 -2 11 3 0 6 -6 11 -12 11
-8 0 -14 16 -15 40 -2 37 -1 40 25 41 15 0 36 4 47 8 17 7 16 9 -10 16 -17 5
-37 7 -45 6 -8 -2 -12 0 -9 4 4 3 35 8 70 11 34 3 65 5 68 6 24 2 93 -5 83 -9
-15 -6 -6 -23 14 -23 12 0 12 4 4 20 -6 11 -18 20 -27 20 -8 0 -33 5 -55 12
-51 15 -31 28 47 28 33 0 71 7 85 15 14 8 36 15 50 16 23 1 23 2 -5 9 l-30 8
31 1 c16 0 35 -4 42 -11 9 -9 12 -9 12 0 0 6 6 9 14 6 8 -3 18 7 26 25 11 28
22 35 57 34 6 0 9 5 7 11 -2 6 10 17 28 24 26 10 30 14 18 22 -8 5 -12 12 -8
15 3 3 18 -6 32 -20 26 -25 33 -49 19 -58 -5 -2 -2 -2 5 0 8 1 19 3 26 3 9 0
12 9 9 24 -5 26 16 86 30 86 5 0 5 -4 2 -10 -11 -18 44 -10 57 8 7 11 31 22
53 26 73 13 77 15 60 33 -12 12 -19 13 -30 3 -8 -7 -15 -10 -15 -7 0 3 -3 12
-6 21 -5 14 11 16 139 16 l146 0 3 -86z m-895 29 c-6 -9 -107 -6 -116 3 -2 2
16 4 42 4 25 0 49 5 53 11 4 7 10 7 16 1 6 -6 8 -14 5 -19z m1596 12 c-3 -9
-8 -14 -10 -11 -3 3 -2 9 2 15 9 16 15 13 8 -4z m-333 -4 c0 -5 -7 -12 -16
-15 -14 -5 -15 -4 -4 9 14 17 20 19 20 6z m-785 -21 c-3 -5 -10 -10 -16 -10
-5 0 -9 5 -9 10 0 6 7 10 16 10 8 0 12 -4 9 -10z m625 -25 c0 -9 -9 -15 -25
-15 -29 0 -34 16 -7 23 30 8 32 7 32 -8z m30 5 c0 -5 -5 -10 -11 -10 -5 0 -7
5 -4 10 3 6 8 10 11 10 2 0 4 -4 4 -10z m-1140 -8 c0 -4 -17 -6 -37 -4 -65 6
-70 10 -15 11 28 0 52 -3 52 -7z m1210 2 c0 -4 -8 -13 -17 -21 -10 -8 -12 -12
-5 -8 6 3 12 1 12 -5 0 -6 4 -8 10 -5 5 3 7 0 4 -9 -5 -13 -9 -12 -26 4 -18
16 -19 22 -8 35 13 15 30 20 30 9z m-915 -34 c3 -5 -1 -10 -10 -10 -9 0 -13 5
-10 10 3 6 8 10 10 10 2 0 7 -4 10 -10z m140 0 c3 -5 1 -10 -4 -10 -6 0 -11 5
-11 10 0 6 2 10 4 10 3 0 8 -4 11 -10z m2013 -13 c35 -27 -64 -51 -122 -28
-17 7 -17 8 -2 23 18 18 103 22 124 5z m-2438 -7 c0 -11 -37 -19 -60 -13 -35
9 -22 23 20 21 22 -1 40 -5 40 -8z m1327 -27 c-14 -15 -30 -24 -34 -20 -4 5 6
19 22 32 39 30 47 22 12 -12z m-247 13 c0 -17 -14 -29 -23 -20 -8 8 3 34 14
34 5 0 9 -6 9 -14z m1810 4 c0 -5 -4 -10 -10 -10 -5 0 -10 5 -10 10 0 6 5 10
10 10 6 0 10 -4 10 -10z m-1777 -17 c-7 -3 -13 -11 -13 -19 0 -8 -4 -14 -10
-14 -5 0 -10 5 -10 11 0 14 33 40 40 32 3 -3 -1 -8 -7 -10z m97 -25 c0 -5 -4
-8 -10 -8 -5 0 -10 4 -10 9 0 5 -12 12 -27 16 -20 5 -23 9 -13 15 13 8 59 -16
60 -32z m17 26 c-3 -3 -12 -4 -19 -1 -8 3 -5 6 6 6 11 1 17 -2 13 -5z m183
-21 c0 -5 -5 -15 -10 -23 -8 -12 -10 -11 -10 8 0 12 5 22 10 22 6 0 10 -3 10
-7z m-1465 -13 c-3 -5 -13 -10 -21 -10 -8 0 -12 5 -9 10 3 6 13 10 21 10 8 0
12 -4 9 -10z m185 0 c0 -5 -4 -10 -10 -10 -5 0 -10 5 -10 10 0 6 5 10 10 10 6
0 10 -4 10 -10z m100 0 c0 -5 -9 -10 -21 -10 -11 0 -17 5 -14 10 3 6 13 10 21
10 8 0 14 -4 14 -10z m827 -10 c2 -23 -12 -27 -20 -6 -3 8 -1 17 6 20 7 2 12
5 12 5 1 1 1 -8 2 -19z m117 -12 c-4 -6 -10 -5 -15 3 -14 22 -10 33 6 19 8 -7
12 -17 9 -22z m-1084 12 c0 -5 -7 -10 -16 -10 -8 0 -12 5 -9 10 3 6 10 10 16
10 5 0 9 -4 9 -10z m2117 -17 c-3 -3 -11 -2 -17 2 -9 6 -9 10 1 16 14 8 27 -7
16 -18z m108 15 c31 -14 28 -33 -6 -33 -17 0 -25 6 -27 23 -4 25 -2 26 33 10z
m-1325 -13 c-7 -8 -22 -15 -34 -15 -20 0 -19 1 4 14 34 19 45 19 30 1z m144 4
c-3 -6 0 -15 7 -20 7 -4 10 -12 5 -16 -5 -4 -11 -2 -13 5 -3 6 -12 12 -21 12
-15 1 -14 3 2 15 24 18 30 19 20 4z m186 -10 c0 -14 -17 -10 -23 5 -4 10 -1
13 9 9 7 -3 14 -9 14 -14z m1160 2 c0 -16 -27 -31 -44 -25 -30 11 -16 34 21
34 13 0 23 -4 23 -9z m250 -1 c0 -5 -2 -10 -4 -10 -3 0 -8 5 -11 10 -3 6 -1
10 4 10 6 0 11 -4 11 -10z m-1811 -44 c19 4 31 2 31 -4 0 -6 -12 -12 -27 -14
-35 -4 -43 -28 -9 -28 18 0 24 -4 20 -15 -4 -9 0 -15 10 -15 20 0 20 -9 0 -31
-12 -13 -12 -19 -3 -25 7 -4 10 -3 5 4 -3 6 -1 14 5 18 19 11 31 -19 13 -33
-9 -6 -13 -16 -9 -22 7 -12 -5 -14 -20 -3 -27 19 -60 92 -35 77 6 -4 8 -11 5
-16 -4 -5 -2 -9 3 -9 18 0 20 13 6 36 -13 20 -22 22 -54 18 -23 -3 -41 -1 -45
6 -4 7 0 10 11 8 11 -2 19 3 19 12 2 31 17 51 30 40 7 -5 26 -7 44 -4z m61
-10 c0 -15 -18 -31 -26 -23 -7 7 7 37 17 37 5 0 9 -6 9 -14z m-160 -17 c0 -6
-4 -7 -10 -4 -5 3 -10 11 -10 16 0 6 5 7 10 4 6 -3 10 -11 10 -16z m-890 1 c0
-5 -4 -10 -10 -10 -5 0 -10 5 -10 10 0 6 5 10 10 10 6 0 10 -4 10 -10z m710
-10 c-11 -11 -26 -20 -34 -20 -8 0 -37 -16 -66 -35 -29 -19 -57 -35 -63 -35
-6 0 -19 -7 -29 -17 -10 -9 -21 -14 -23 -11 -6 5 41 37 140 94 84 48 107 56
75 24z m343 -19 c-3 -13 -10 -18 -20 -14 -14 5 -13 8 3 20 23 17 23 17 17 -6z
m-268 -21 c3 -5 1 -10 -4 -10 -6 0 -11 5 -11 10 0 6 2 10 4 10 3 0 8 -4 11
-10z m155 -9 c0 -11 -9 -21 -22 -24 -13 -2 -31 -8 -40 -12 -13 -5 -17 -2 -15
14 1 16 7 19 30 17 18 -2 31 2 34 10 7 20 13 17 13 -5z m4480 9 c13 -8 13 -10
-2 -10 -9 0 -20 5 -23 10 -8 13 5 13 25 0z m-4634 -57 c-6 -6 -36 9 -36 18 0
5 9 4 20 -3 10 -7 18 -14 16 -15z m1574 17 c0 -5 -4 -10 -10 -10 -5 0 -10 5
-10 10 0 6 5 10 10 10 6 0 10 -4 10 -10z m-1422 -26 c-9 -9 -21 -13 -28 -9 -8
5 -4 11 12 19 29 16 37 10 16 -10z m289 19 c-14 -4 -16 -8 -6 -19 9 -11 9 -14
0 -14 -7 0 -10 -4 -6 -9 3 -5 2 -12 -3 -15 -5 -3 -7 9 -6 27 2 39 0 37 22 36
16 -1 16 -2 -1 -6z m143 3 c0 -3 -4 -8 -10 -11 -5 -3 -10 -1 -10 4 0 6 5 11
10 11 6 0 10 -2 10 -4z m-510 -30 c0 -2 -7 -7 -16 -10 -8 -3 -12 -2 -9 4 6 10
25 14 25 6z m-395 -26 c-20 -22 -193 -110 -215 -110 -8 1 21 20 66 43 44 23
98 52 120 64 49 28 51 28 29 3z m4845 12 c0 -4 -15 -6 -33 -4 -43 5 -61 -15
-47 -52 7 -19 17 -26 35 -26 16 0 25 6 25 15 0 8 5 15 11 15 6 0 9 -8 7 -17
-4 -22 -72 -30 -94 -12 -20 16 -18 66 4 78 20 12 92 14 92 3z m50 -32 c0 -27
6 -42 18 -49 14 -9 14 -10 2 -11 -9 0 -21 5 -28 12 -14 14 -16 88 -2 88 6 0
10 -18 10 -40z m77 -27 c-2 -16 -4 -5 -4 22 0 28 2 40 4 28 2 -13 2 -35 0 -50z
m53 15 c0 -62 -10 -58 -16 6 -3 27 0 46 6 46 5 0 10 -23 10 -52z m110 42 c0
-5 -4 -10 -10 -10 -5 0 -10 5 -10 10 0 6 5 10 10 10 6 0 10 -4 10 -10z m-4650
-10 c0 -5 -2 -10 -4 -10 -3 0 -8 5 -11 10 -3 6 -1 10 4 10 6 0 11 -4 11 -10z
m2013 -25 c-6 -17 -25 -15 -31 3 -2 7 5 12 17 12 14 0 19 -5 14 -15z m2639 3
c3 -7 1 -24 -3 -38 -8 -29 -9 -27 -13 18 -4 31 7 44 16 20z m-3392 -59 c0 -5
-4 -9 -10 -9 -5 0 -10 7 -10 16 0 8 5 12 10 9 6 -3 10 -10 10 -16z m-445 1
c-3 -5 -10 -10 -16 -10 -5 0 -9 5 -9 10 0 6 7 10 16 10 8 0 12 -4 9 -10z
m1225 -10 c0 -5 -4 -10 -10 -10 -5 0 -10 5 -10 10 0 6 5 10 10 10 6 0 10 -4
10 -10z m-990 -10 c0 -5 -4 -10 -10 -10 -5 0 -10 5 -10 10 0 6 5 10 10 10 6 0
10 -4 10 -10z m550 -40 c0 -5 -4 -10 -10 -10 -5 0 -10 5 -10 10 0 6 5 10 10
10 6 0 10 -4 10 -10z m-1957 -12 c-18 -6 -33 -15 -33 -19 0 -5 -7 -9 -15 -9
-8 0 -15 4 -15 9 0 11 47 30 75 29 12 0 8 -4 -12 -10z m3493 -4 c18 -14 18
-14 -6 -3 -31 14 -36 19 -24 19 6 0 19 -7 30 -16z m-2566 -4 c0 -5 -4 -10 -10
-10 -5 0 -10 5 -10 10 0 6 5 10 10 10 6 0 10 -4 10 -10z m1180 0 c0 -5 -7 -10
-15 -10 -8 0 -15 5 -15 10 0 6 7 10 15 10 8 0 15 -4 15 -10z m-810 -30 c0 -5
-2 -10 -4 -10 -3 0 -8 5 -11 10 -3 6 -1 10 4 10 6 0 11 -4 11 -10z m-225 -10
c-3 -5 -10 -10 -16 -10 -5 0 -9 5 -9 10 0 6 7 10 16 10 8 0 12 -4 9 -10z
m-535 -10 c0 -5 -4 -10 -10 -10 -5 0 -10 5 -10 10 0 6 5 10 10 10 6 0 10 -4
10 -10z m-320 -4 c0 -11 -19 -15 -25 -6 -3 5 1 10 9 10 9 0 16 -2 16 -4z m360
-6 c0 -5 -5 -10 -11 -10 -5 0 -7 5 -4 10 3 6 8 10 11 10 2 0 4 -4 4 -10z m180
-6 c0 -8 -5 -12 -10 -9 -6 4 -8 11 -5 16 9 14 15 11 15 -7z m500 2 c0 -3 -4
-8 -10 -11 -5 -3 -10 -1 -10 4 0 6 5 11 10 11 6 0 10 -2 10 -4z m148 -21 c-15
-16 -68 -9 -68 9 0 7 14 10 41 8 34 -4 39 -7 27 -17z m102 6 c0 -13 -27 -21
-45 -15 -25 10 -17 24 15 24 17 0 30 -4 30 -9z m545 -11 c3 -5 2 -10 -4 -10
-5 0 -13 5 -16 10 -3 6 -2 10 4 10 5 0 13 -4 16 -10z m55 -6 c0 -2 -7 -4 -15
-4 -8 0 -15 4 -15 10 0 5 7 7 15 4 8 -4 15 -8 15 -10z m2760 10 c0 -14 -15
-34 -26 -34 -13 0 -19 21 -9 32 5 5 35 7 35 2z m-5643 -36 c-1 -15 -7 -30 -14
-32 -17 -7 -22 4 -16 35 7 36 32 34 30 -3z m1533 28 c0 -3 -4 -8 -10 -11 -5
-3 -10 -1 -10 4 0 6 5 11 10 11 6 0 10 -2 10 -4z m688 -14 c6 -18 -15 -14 -22
4 -4 10 -1 14 6 12 6 -2 14 -10 16 -16z m-1238 -30 c0 -15 -2 -15 -10 -2 -13
20 -13 33 0 25 6 -3 10 -14 10 -23z m1243 8 c10 0 16 -4 13 -9 -3 -4 -18 -6
-32 -3 -23 4 -26 2 -21 -12 4 -10 3 -15 -3 -11 -13 8 -13 35 1 35 5 0 7 6 3
13 -6 10 -4 10 7 0 7 -7 21 -13 32 -13z m-2439 -22 c-9 -30 -10 -31 -24 -23
-6 4 -9 14 -6 22 4 9 2 11 -6 7 -7 -4 -8 -3 -4 4 4 7 16 12 27 12 16 0 19 -4
13 -22z m73 -15 c-6 -33 -20 -52 -39 -53 -5 0 -8 18 -8 39 0 38 6 45 44 50 5
0 6 -16 3 -36z m609 -70 c161 -107 264 -181 264 -187 0 -2 -33 -24 -72 -49
-70 -44 -143 -98 -241 -180 -45 -37 -48 -38 -101 -32 -31 4 -56 10 -56 14 1
11 203 166 268 205 34 21 62 41 62 45 0 17 -97 93 -255 199 -38 26 -74 50 -80
54 -10 8 21 37 41 38 6 0 82 -48 170 -107z m1192 91 c6 -2 12 1 12 7 0 6 5 7
10 4 17 -10 11 -25 -9 -25 -11 0 -23 -4 -26 -10 -3 -6 1 -7 9 -4 21 8 20 -6
-1 -22 -25 -18 -34 -17 -31 4 2 9 -2 16 -9 15 -8 -2 -10 4 -6 14 5 12 2 15
-10 10 -17 -6 -23 4 -11 16 6 6 37 2 72 -9z m67 6 c-3 -5 -10 -10 -16 -10 -5
0 -9 5 -9 10 0 6 7 10 16 10 8 0 12 -4 9 -10z m825 0 c0 -5 -5 -10 -11 -10 -5
0 -7 5 -4 10 3 6 8 10 11 10 2 0 4 -4 4 -10z m2044 -16 c26 -15 45 -29 42 -31
-5 -6 -96 44 -96 52 0 8 6 6 54 -21z m-4858 -16 c-5 -23 24 -62 32 -40 2 6 8
12 14 12 6 0 5 -6 -2 -15 -7 -9 -20 -13 -28 -10 -8 3 -21 0 -30 -7 -13 -11
-15 -8 -10 30 4 28 2 42 -5 42 -7 0 -12 -18 -12 -45 0 -30 -5 -49 -15 -55 -29
-19 -40 -11 -41 30 -1 22 -2 46 -3 53 -1 12 82 38 97 29 5 -2 6 -13 3 -24z
m2718 -6 c10 -2 22 1 27 9 7 11 9 11 9 -3 0 -9 -5 -20 -11 -23 -6 -4 -8 -13
-5 -21 6 -15 -16 -17 -69 -5 -20 4 -26 9 -17 14 6 5 12 17 12 29 0 15 4 18 18
13 9 -4 25 -10 36 -13z m86 0 c-8 -3 -21 -9 -27 -15 -18 -14 -16 -1 3 17 8 9
21 13 27 9 7 -4 6 -8 -3 -11z m-2314 -34 c144 -105 263 -201 259 -207 -2 -4
-41 -29 -87 -56 -45 -26 -121 -77 -168 -112 -82 -63 -86 -64 -130 -58 -80 12
-78 17 56 107 45 31 109 70 143 88 73 39 78 29 -76 157 -100 83 -114 103 -72
103 12 0 17 4 13 11 -8 14 18 0 62 -33z m-626 22 c0 -5 -7 -10 -16 -10 -8 0
-12 5 -9 10 3 6 10 10 16 10 5 0 9 -4 9 -10z m2170 -10 l25 -8 -25 -1 c-14 -1
-36 -4 -49 -8 -22 -6 -23 -5 -10 10 16 18 22 19 59 7z m415 0 c3 -4 -23 -8
-56 -9 -33 -1 -58 3 -55 8 7 10 105 11 111 1z m83 -7 c-10 -2 -26 -2 -35 0
-10 3 -2 5 17 5 19 0 27 -2 18 -5z m2417 -11 c-3 -3 -11 0 -18 7 -9 10 -8 11
6 5 10 -3 15 -9 12 -12z m-2165 4 c0 -2 -7 -6 -15 -10 -8 -3 -15 -1 -15 4 0 6
7 10 15 10 8 0 15 -2 15 -4z m637 -2 c-3 -3 -12 -4 -19 -1 -8 3 -5 6 6 6 11 1
17 -2 13 -5z m-3651 -68 c-7 -36 -43 -57 -52 -31 -11 28 1 60 24 63 12 2 22 9
23 15 0 8 2 8 6 -1 3 -7 2 -28 -1 -46z m637 -31 c53 -47 97 -89 97 -94 0 -4
-46 -34 -102 -65 -57 -32 -125 -75 -153 -97 -46 -36 -55 -39 -112 -39 -35 0
-63 4 -63 9 0 15 116 94 195 134 123 62 121 55 41 136 -39 39 -68 72 -65 74 6
5 53 26 59 26 3 1 49 -38 103 -84z m1662 75 c3 -5 -1 -10 -10 -10 -9 0 -13 5
-10 10 3 6 8 10 10 10 2 0 7 -4 10 -10z m2938 -7 c18 -9 26 -18 20 -20 -7 -3
-25 5 -39 16 -32 25 -24 27 19 4z m-5568 -3 c3 -5 1 -10 -4 -10 -6 0 -11 5
-11 10 0 6 2 10 4 10 3 0 8 -4 11 -10z m3315 0 c0 -10 -31 -18 -47 -13 -23 8
-14 18 17 19 17 1 30 -2 30 -6z m710 -24 c-10 -9 -27 -12 -47 -9 -49 8 -40 23
14 23 41 0 45 -2 33 -14z m113 5 c17 -2 -4 -19 -28 -23 -13 -3 -22 -1 -19 3 3
5 0 9 -5 9 -6 0 -11 5 -11 10 0 6 12 9 28 6 15 -2 31 -5 35 -5z m-841 -43 c-6
-6 -18 -7 -29 -3 -16 8 -16 9 5 12 12 3 22 10 23 16 0 8 3 7 6 -1 3 -8 1 -18
-5 -24z m-2522 -33 c29 -30 52 -56 49 -58 -2 -2 -49 -28 -104 -57 -55 -29
-129 -73 -163 -96 -60 -41 -67 -43 -120 -39 -32 2 -63 4 -71 5 -22 0 102 77
222 137 l108 54 -32 40 c-17 22 -30 41 -28 43 6 5 63 24 74 25 6 1 35 -24 65
-54z m2580 51 c0 -3 -4 -8 -10 -11 -5 -3 -10 -1 -10 4 0 6 5 11 10 11 6 0 10
-2 10 -4z m2345 -31 c33 -18 61 -38 63 -44 4 -13 -78 30 -117 61 -36 28 -12
21 54 -17z m740 15 c3 -6 -4 -10 -17 -10 -18 0 -20 2 -8 10 19 12 18 12 25 0z
m-6303 -37 c-5 -42 -17 -63 -38 -63 -10 0 -14 13 -14 41 0 22 4 38 9 34 6 -3
16 1 23 9 20 23 24 19 20 -21z m3268 7 c22 -7 21 -8 -12 -9 -21 -1 -38 4 -38
9 0 11 14 11 50 0z m686 -5 c4 -8 3 -23 -1 -32 -7 -16 -9 -14 -15 7 -5 20 -12
24 -32 22 -15 -1 -29 2 -33 8 -4 6 9 10 35 10 27 0 43 -5 46 -15z m-1443 -2
c-7 -2 -19 -2 -25 0 -7 3 -2 5 12 5 14 0 19 -2 13 -5z m77 -3 c0 -13 -11 -13
-30 0 -12 8 -11 10 8 10 12 0 22 -4 22 -10z m120 6 c0 -2 -7 -7 -16 -10 -8 -3
-12 -2 -9 4 6 10 25 14 25 6z m40 -6 c0 -5 -2 -10 -4 -10 -3 0 -8 5 -11 10 -3
6 -1 10 4 10 6 0 11 -4 11 -10z m641 1 c-12 -8 -51 -4 -51 5 0 2 15 4 33 4 22
0 28 -3 18 -9z m2154 -1 c3 -6 -1 -7 -9 -4 -18 7 -21 14 -7 14 6 0 13 -4 16
-10z m-5114 -22 c14 -25 1 -38 -71 -70 -25 -11 -97 -48 -160 -84 -104 -58
-122 -64 -172 -64 -31 0 -59 3 -61 8 -3 4 67 41 154 82 88 41 171 86 186 99
27 24 78 50 100 51 7 0 18 -10 24 -22z m2217 -5 c-10 -2 -18 -9 -18 -14 0 -15
-17 -10 -24 6 -4 12 2 15 27 14 18 -1 24 -3 15 -6z m3049 -29 c-7 -7 -57 18
-57 28 0 5 14 1 31 -7 17 -9 29 -19 26 -21z m-2973 17 c3 -5 0 -11 -8 -14 -15
-6 -26 1 -26 15 0 11 27 10 34 -1z m1176 -16 c-8 -10 -31 -15 -68 -15 -30 0
-53 3 -49 6 3 4 26 6 51 6 25 -1 48 3 51 8 4 6 11 10 17 10 7 0 6 -6 -2 -15z
m147 -6 c21 -1 29 -3 18 -6 -11 -3 -25 -9 -32 -15 -8 -6 -20 -4 -37 7 -30 20
-35 41 -7 25 11 -5 37 -11 58 -11z m113 11 c0 -5 -2 -10 -4 -10 -3 0 -8 5 -11
10 -3 6 -1 10 4 10 6 0 11 -4 11 -10z m-1665 -30 c3 -5 1 -10 -4 -10 -6 0 -11
5 -11 10 0 6 2 10 4 10 3 0 8 -4 11 -10z m148 5 c11 -5 12 -13 3 -45 -5 -22
-15 -40 -21 -40 -22 0 -36 19 -41 53 -4 34 -2 37 20 37 13 0 31 -2 39 -5z
m320 -35 c87 -27 106 -37 101 -49 -3 -9 -15 -53 -26 -98 l-20 -83 -38 0 -38 0
13 43 c7 23 20 62 29 86 9 24 16 49 16 55 0 6 -37 23 -82 36 -45 14 -84 31
-86 39 -3 9 0 12 9 9 8 -3 63 -20 122 -38z m1324 34 c-3 -3 -12 -4 -19 -1 -8
3 -5 6 6 6 11 1 17 -2 13 -5z m-957 -14 c0 -5 -5 -10 -11 -10 -5 0 -7 5 -4 10
3 6 8 10 11 10 2 0 4 -4 4 -10z m-3662 -14 c-12 -9 -14 -16 -7 -23 8 -8 7 -13
0 -18 -6 -3 -14 1 -17 9 -7 18 12 46 30 46 6 0 3 -6 -6 -14z m4537 -16 c-22
-8 -47 -2 -40 10 2 4 17 5 32 2 24 -5 25 -6 8 -12z m119 9 c-5 -8 -1 -8 14 0
12 6 23 7 26 2 6 -10 -39 -32 -48 -24 -10 10 -7 33 5 33 5 0 7 -5 3 -11z
m-257 -12 c7 -7 -38 -57 -52 -57 -18 0 -38 57 -22 63 13 5 67 0 74 -6z m-2207
-17 c0 -5 -2 -10 -4 -10 -3 0 -8 5 -11 10 -3 6 -1 10 4 10 6 0 11 -4 11 -10z
m1450 0 c0 -5 -2 -10 -4 -10 -3 0 -8 5 -11 10 -3 6 -1 10 4 10 6 0 11 -4 11
-10z m30 -5 c0 -8 -4 -15 -10 -15 -5 0 -7 7 -4 15 4 8 8 15 10 15 2 0 4 -7 4
-15z m90 -5 c0 -5 -4 -10 -10 -10 -5 0 -10 5 -10 10 0 6 5 10 10 10 6 0 10 -4
10 -10z m-670 -20 c10 -7 -1 -8 -35 -4 -27 4 -52 8 -54 10 -10 9 75 3 89 -6z
m1074 -39 c4 -5 -3 -7 -14 -4 -23 6 -26 13 -6 13 8 0 17 -4 20 -9z m179 2 c-7
-2 -19 -2 -25 0 -7 3 -2 5 12 5 14 0 19 -2 13 -5z m-2101 -14 c38 4 36 -6 -2
-11 -20 -3 -35 1 -43 11 -10 12 -9 13 3 6 8 -5 27 -8 42 -6z m58 7 c0 -3 -4
-8 -10 -11 -5 -3 -10 -1 -10 4 0 6 5 11 10 11 6 0 10 -2 10 -4z m700 -16 c0
-5 -17 -9 -37 -9 -38 1 -38 1 -8 9 43 11 45 11 45 0z m-170 -10 c0 -13 -11
-13 -30 0 -12 8 -11 10 8 10 12 0 22 -4 22 -10z m53 3 c-7 -2 -21 -2 -30 0
-10 3 -4 5 12 5 17 0 24 -2 18 -5z m1377 -7 c0 -3 -4 -8 -10 -11 -5 -3 -10 -1
-10 4 0 6 5 11 10 11 6 0 10 -2 10 -4z m60 -17 c0 -6 -4 -7 -10 -4 -5 3 -10
11 -10 16 0 6 5 7 10 4 6 -3 10 -11 10 -16z m80 -49 c0 -5 -5 -10 -11 -10 -5
0 -7 5 -4 10 3 6 8 10 11 10 2 0 4 -4 4 -10z m40 -4 c0 -3 -4 -8 -10 -11 -5
-3 -10 -1 -10 4 0 6 5 11 10 11 6 0 10 -2 10 -4z m-935 -46 c-3 -5 -16 -10
-28 -9 -21 0 -21 1 -2 9 28 12 37 12 30 0z m835 0 c0 -5 -11 -9 -25 -8 -14 1
-25 6 -25 10 0 4 11 8 25 8 14 0 25 -4 25 -10z m-1036 -8 c6 -10 -30 -9 -40 1
-4 4 2 7 14 7 11 0 23 -4 26 -8z m1306 -35 c0 -14 -46 -21 -64 -10 -6 5 4 10
24 14 19 4 36 7 38 8 1 0 2 -5 2 -12z m-1293 -24 c-1 -14 -9 -29 -17 -31 -13
-5 -13 -3 -1 11 12 15 10 17 -18 17 -21 0 -31 5 -31 15 0 10 10 15 34 15 32 0
35 -3 33 -27z m97 7 c-10 -4 -23 -5 -28 -2 -13 7 16 21 32 14 13 -4 12 -7 -4
-12z m-354 -10 c0 -5 -2 -10 -4 -10 -3 0 -8 5 -11 10 -3 6 -1 10 4 10 6 0 11
-4 11 -10z m415 0 c3 -6 -1 -7 -9 -4 -18 7 -21 14 -7 14 6 0 13 -4 16 -10z
m37 -110 c15 -35 9 -50 -22 -50 -24 0 -33 6 -40 26 -14 37 -13 39 23 39 19 0
35 -6 39 -15z m125 -36 c-3 -3 -12 -4 -19 -1 -8 3 -5 6 6 6 11 1 17 -2 13 -5z
m-391 -88 c2 -1 -78 -320 -81 -324 -1 -1 -22 -3 -46 -4 -34 -2 -43 1 -40 12
15 58 81 280 90 302 9 25 14 27 43 21 18 -3 34 -6 34 -7z m-2626 -6 c-30 -5
-77 -8 -105 -7 l-50 0 60 7 c33 4 80 7 105 7 44 0 44 0 -10 -7z m-182 -17
c-10 -2 -26 -2 -35 0 -10 3 -2 5 17 5 19 0 27 -2 18 -5z m3930 -270 c-16 -2
-40 -2 -55 0 -16 2 -3 4 27 4 30 0 43 -2 28 -4z m69 1 c-3 -3 -12 -4 -19 -1
-8 3 -5 6 6 6 11 1 17 -2 13 -5z m-384 -11 c-24 -2 -62 -2 -85 0 -24 2 -5 4
42 4 47 0 66 -2 43 -4z m90 0 c-7 -2 -19 -2 -25 0 -7 3 -2 5 12 5 14 0 19 -2
13 -5z m-606 -9 c-3 -3 -12 -4 -19 -1 -8 3 -5 6 6 6 11 1 17 -2 13 -5z m91 -1
c-10 -2 -28 -2 -40 0 -13 2 -5 4 17 4 22 1 32 -1 23 -4z m-325 -10 c-18 -2
-48 -2 -65 0 -18 2 -4 4 32 4 36 0 50 -2 33 -4z m100 0 c-7 -2 -21 -2 -30 0
-10 3 -4 5 12 5 17 0 24 -2 18 -5z m-430 -10 c-29 -2 -77 -2 -105 0 -29 2 -6
3 52 3 58 0 81 -1 53 -3z m-395 -10 c-15 -2 -42 -2 -60 0 -18 2 -6 4 27 4 33
0 48 -2 33 -4z m110 0 c-16 -2 -40 -2 -55 0 -16 2 -3 4 27 4 30 0 43 -2 28 -4z
m-425 -10 c-7 -2 -21 -2 -30 0 -10 3 -4 5 12 5 17 0 24 -2 18 -5z m54 1 c-3
-3 -12 -4 -19 -1 -8 3 -5 6 6 6 11 1 17 -2 13 -5z m-319 -11 c-32 -2 -86 -2
-120 0 -35 2 -9 3 57 3 66 0 94 -1 63 -3z m-300 -10 c-32 -2 -86 -2 -120 0
-35 2 -9 3 57 3 66 0 94 -1 63 -3z m-326 -10 c-40 -2 -103 -2 -140 0 -37 2 -4
3 73 3 77 0 107 -2 67 -3z m-475 -9 c-3 -3 -12 -4 -19 -1 -8 3 -5 6 6 6 11 1
17 -2 13 -5z m156 -1 c-24 -2 -62 -2 -85 0 -24 2 -5 4 42 4 47 0 66 -2 43 -4z
m-405 -10 c-16 -2 -40 -2 -55 0 -16 2 -3 4 27 4 30 0 43 -2 28 -4z"/>
<path d="M196 4362 c-3 -6 -1 -14 5 -17 15 -10 25 3 12 16 -7 7 -13 7 -17 1z"/>
<path d="M250 4230 c0 -5 5 -10 10 -10 6 0 10 5 10 10 0 6 -4 10 -10 10 -5 0
-10 -4 -10 -10z"/>
<path d="M140 3985 c0 -8 5 -15 10 -15 6 0 10 7 10 15 0 8 -4 15 -10 15 -5 0
-10 -7 -10 -15z"/>
<path d="M206 3993 c-11 -11 -6 -23 9 -23 8 0 15 4 15 9 0 13 -16 22 -24 14z"/>
<path d="M256 3991 c-4 -7 -5 -15 -2 -18 9 -9 19 4 14 18 -4 11 -6 11 -12 0z"/>
<path d="M1807 3833 c-13 -12 -7 -33 8 -33 8 0 15 9 15 20 0 20 -11 26 -23 13z"/>
<path d="M2554 3707 c7 -11 20 -17 35 -15 41 5 36 25 -7 30 -36 3 -38 2 -28
-15z"/>
<path d="M2163 3675 c1 -25 6 -45 10 -45 4 0 13 0 21 0 8 0 15 14 18 34 5 46
0 56 -28 56 -22 0 -24 -3 -21 -45z"/>
<path d="M2239 3678 c-7 -25 -3 -48 8 -48 15 0 18 36 3 45 -5 3 -10 5 -11 3z"/>
<path d="M2293 3673 c-7 -2 -13 -12 -13 -22 0 -13 9 -17 35 -18 27 -1 35 3 35
16 0 27 -12 33 -27 13 -14 -16 -14 -16 -9 1 5 17 1 19 -21 10z"/>
<path d="M2377 3661 c-6 -23 0 -31 21 -31 9 0 13 7 9 20 -3 10 0 21 7 24 6 2
1 5 -10 5 -13 1 -24 -6 -27 -18z"/>
<path d="M3797 3600 c-5 -21 7 -35 22 -26 10 7 3 46 -9 46 -4 0 -10 -9 -13
-20z"/>
<path d="M4052 3623 c2 -22 8 -28 28 -28 16 0 26 6 28 19 4 21 -13 36 -41 36
-14 0 -18 -6 -15 -27z"/>
<path d="M2501 3434 c0 -11 3 -14 6 -6 3 7 2 16 -1 19 -3 4 -6 -2 -5 -13z"/>
<path d="M2520 3226 c0 -2 7 -9 15 -16 13 -11 14 -10 9 4 -5 14 -24 23 -24 12z"/>
<path d="M2519 3111 c-13 -11 -19 -20 -13 -21 15 0 50 27 43 34 -3 4 -17 -2
-30 -13z"/>
<path d="M2490 2801 c0 -6 5 -13 10 -16 6 -3 10 1 10 9 0 9 -4 16 -10 16 -5 0
-10 -4 -10 -9z"/>
<path d="M2430 2760 c-13 -8 -12 -10 3 -10 9 0 17 5 17 10 0 12 -1 12 -20 0z"/>
<path d="M2385 2720 c-3 -5 -2 -10 4 -10 5 0 13 5 16 10 3 6 2 10 -4 10 -5 0
-13 -4 -16 -10z"/>
<path d="M2456 2712 c-4 -4 -12 -8 -17 -8 -5 -1 -13 -2 -19 -3 -5 0 -10 -9
-10 -18 0 -14 2 -15 9 -4 5 7 14 10 20 7 6 -4 9 -12 6 -17 -4 -5 1 -9 9 -9 19
0 21 16 4 26 -8 5 -6 9 7 14 11 4 14 9 8 13 -6 4 -13 3 -17 -1z"/>
<path d="M2435 2600 c-3 -5 -1 -10 4 -10 6 0 11 5 11 10 0 6 -2 10 -4 10 -3 0
-8 -4 -11 -10z"/>
<path d="M2272 2570 c-12 -19 -11 -20 8 -8 11 7 20 16 20 20 0 15 -15 8 -28
-12z"/>
<path d="M2356 2573 c-4 -4 -15 -8 -23 -8 -9 0 -17 -6 -19 -13 -1 -7 0 -8 3
-2 2 5 9 10 14 10 14 0 11 -28 -3 -34 -7 -2 -2 -4 12 -3 27 2 55 31 45 47 -7
12 -19 13 -29 3z"/>
<path d="M2112 2555 c-7 -8 -9 -15 -4 -15 5 0 15 7 22 15 16 19 -1 19 -18 0z"/>
<path d="M2115 2470 c3 -5 11 -10 16 -10 6 0 7 5 4 10 -3 6 -11 10 -16 10 -6
0 -7 -4 -4 -10z"/>
<path d="M2381 2458 c-1 -11 -8 -15 -23 -12 -21 4 -21 4 -3 -5 23 -10 40 1 32
21 -4 9 -6 8 -6 -4z"/>
<path d="M2270 2386 c0 -2 7 -6 15 -10 8 -3 15 -1 15 4 0 6 -7 10 -15 10 -8 0
-15 -2 -15 -4z"/>
<path d="M2406 3045 c-25 -19 -9 -19 24 0 14 8 19 14 10 14 -8 0 -24 -6 -34
-14z"/>
<path d="M2090 3080 c-11 -7 -3 -10 30 -10 33 0 41 3 30 10 -8 5 -22 10 -30
10 -8 0 -22 -5 -30 -10z"/>
<path d="M2225 3010 c-3 -5 -2 -10 4 -10 5 0 13 5 16 10 3 6 2 10 -4 10 -5 0
-13 -4 -16 -10z"/>
<path d="M1686 2862 c-6 -11 25 -22 64 -22 16 0 21 3 14 10 -15 15 -71 23 -78
12z"/>
<path d="M1570 2806 c0 -2 7 -7 16 -10 8 -3 12 -2 9 4 -6 10 -25 14 -25 6z"/>
<path d="M1725 2800 c3 -5 14 -10 23 -10 15 0 15 2 2 10 -20 13 -33 13 -25 0z"/>
<path d="M1590 2740 c0 -5 4 -10 9 -10 5 0 18 -3 28 -6 16 -6 16 -5 -2 9 -23
19 -35 21 -35 7z"/>
<path d="M1365 2624 c13 -20 13 -23 -3 -28 -9 -2 -3 -4 13 -3 19 1 29 7 27 15
-1 8 2 11 7 8 9 -6 81 20 81 28 0 7 -49 0 -57 -7 -3 -4 -20 -7 -37 -7 -23 0
-27 3 -16 10 12 7 10 9 -7 7 -21 -1 -21 -3 -8 -23z"/>
<path d="M1540 2610 c-22 -7 -21 -8 13 -9 23 -1 36 3 32 9 -7 11 -10 11 -45 0z"/>
<path d="M3540 2291 c0 -5 7 -12 16 -15 21 -8 24 -8 24 5 0 5 -4 7 -10 4 -5
-3 -10 -1 -10 4 0 6 -4 11 -10 11 -5 0 -10 -4 -10 -9z"/>
<path d="M2015 4890 c3 -5 8 -10 11 -10 2 0 4 5 4 10 0 6 -5 10 -11 10 -5 0
-7 -4 -4 -10z"/>
<path d="M2100 4896 c0 -2 7 -7 16 -10 8 -3 12 -2 9 4 -6 10 -25 14 -25 6z"/>
<path d="M2190 4866 c0 -18 6 -39 13 -45 11 -9 13 -4 11 27 -3 52 -3 52 -14
52 -5 0 -10 -15 -10 -34z"/>
<path d="M5208 1773 c7 -3 16 -2 19 1 4 3 -2 6 -13 5 -11 0 -14 -3 -6 -6z"/>
<path d="M5267 1773 c18 -2 50 -2 70 0 21 2 7 4 -32 4 -38 0 -55 -2 -38 -4z"/>
<path d="M5845 980 c3 -5 8 -10 11 -10 2 0 4 5 4 10 0 6 -5 10 -11 10 -5 0 -7
-4 -4 -10z"/>
</g>
</svg>
